<svg id="svg" version="1.1" xmlns="http://www.w3.org/2000/svg" xmlns:xlink="http://www.w3.org/1999/xlink" width="400" height="400" viewBox="0, 0, 400,400"><g id="svgg"><path id="path0" d="M280.500 143.010 C 279.679 143.887,279.600 144.359,279.600 148.404 C 279.600 154.520,279.329 154.800,273.400 154.800 C 267.508 154.800,267.200 155.108,267.200 161.000 C 267.200 164.965,267.137 165.299,266.218 166.218 L 265.236 167.200 242.200 167.200 L 219.164 167.200 218.182 168.182 C 217.263 169.101,217.200 169.435,217.200 173.400 C 217.200 179.292,216.892 179.600,211.000 179.600 C 205.064 179.600,204.800 179.874,204.800 186.035 C 204.800 192.720,208.576 192.000,173.521 192.000 L 143.964 192.000 142.982 192.982 C 142.054 193.909,142.000 194.216,142.000 198.521 C 142.000 204.774,141.975 204.800,136.035 204.800 C 129.874 204.800,129.600 205.064,129.600 211.000 C 129.600 216.892,129.292 217.200,123.400 217.200 C 117.508 217.200,117.200 217.508,117.200 223.400 C 117.200 229.292,116.892 229.600,111.000 229.600 C 105.064 229.600,104.800 229.874,104.800 236.035 C 104.800 242.046,104.853 242.000,97.972 242.000 C 94.263 242.000,92.811 242.137,92.664 242.500 C 92.506 242.888,92.375 242.878,92.079 242.455 C 91.756 241.994,91.663 241.994,91.479 242.455 C 91.300 242.902,91.184 242.892,90.830 242.400 C 90.448 241.867,90.352 241.867,89.970 242.400 C 89.645 242.852,89.489 242.876,89.336 242.500 C 89.224 242.222,88.452 242.000,87.600 242.000 C 86.748 242.000,85.976 242.222,85.864 242.500 C 85.711 242.876,85.555 242.852,85.230 242.400 C 84.848 241.867,84.752 241.867,84.370 242.400 C 84.045 242.852,83.889 242.876,83.736 242.500 C 83.625 242.225,83.188 242.000,82.767 242.000 C 81.749 242.000,81.568 254.825,82.571 255.829 C 83.039 256.296,85.150 256.400,94.200 256.400 C 107.656 256.400,106.400 257.118,106.400 249.429 L 106.400 243.600 112.029 243.600 C 119.220 243.600,118.800 244.020,118.800 236.829 L 118.800 231.200 124.429 231.200 C 131.620 231.200,131.200 231.620,131.200 224.429 L 131.200 218.800 136.829 218.800 C 144.020 218.800,143.600 219.220,143.600 212.029 L 143.600 206.400 174.429 206.400 C 200.613 206.400,205.343 206.314,205.829 205.829 C 206.272 205.386,206.400 203.947,206.400 199.429 L 206.400 193.600 212.029 193.600 C 219.220 193.600,218.800 194.020,218.800 186.829 L 218.800 181.200 243.229 181.200 C 263.867 181.200,267.746 181.111,268.229 180.629 C 268.670 180.187,268.800 178.773,268.800 174.429 L 268.800 168.800 274.429 168.800 C 281.620 168.800,281.200 169.220,281.200 162.029 L 281.200 156.400 286.829 156.400 C 294.096 156.400,293.600 156.969,293.600 148.629 C 293.600 142.267,293.568 142.000,292.800 142.000 C 292.360 142.000,291.997 142.225,291.994 142.500 C 291.990 142.834,291.857 142.801,291.594 142.400 C 291.244 141.867,291.152 141.867,290.770 142.400 C 290.445 142.852,290.289 142.876,290.136 142.500 C 290.024 142.222,289.252 142.000,288.400 142.000 C 287.548 142.000,286.776 142.222,286.664 142.500 C 286.511 142.876,286.355 142.852,286.030 142.400 C 285.648 141.867,285.556 141.867,285.200 142.400 C 284.844 142.933,284.756 142.933,284.400 142.400 C 284.044 141.867,283.952 141.867,283.570 142.400 C 283.245 142.852,283.089 142.876,282.936 142.500 C 282.619 141.719,281.488 141.955,280.500 143.010 M94.400 311.229 C 94.400 316.267,94.524 317.781,94.971 318.229 C 95.827 319.084,142.173 319.084,143.029 318.229 C 144.058 317.199,143.847 304.800,142.800 304.800 C 142.360 304.800,141.997 305.025,141.994 305.300 C 141.990 305.634,141.857 305.601,141.594 305.200 C 141.244 304.667,141.152 304.667,140.770 305.200 C 140.445 305.652,140.289 305.676,140.136 305.300 C 140.024 305.022,139.252 304.800,138.400 304.800 C 137.548 304.800,136.776 305.022,136.664 305.300 C 136.511 305.676,136.355 305.652,136.030 305.200 C 135.648 304.667,135.556 304.667,135.200 305.200 C 134.844 305.733,134.756 305.733,134.400 305.200 C 134.044 304.667,133.952 304.667,133.570 305.200 C 133.245 305.652,133.089 305.676,132.936 305.300 C 132.780 304.914,129.652 304.800,119.200 304.800 C 108.748 304.800,105.620 304.914,105.464 305.300 C 105.311 305.676,105.155 305.652,104.830 305.200 C 104.448 304.667,104.356 304.667,104.000 305.200 C 103.644 305.733,103.556 305.733,103.200 305.200 C 102.844 304.667,102.752 304.667,102.370 305.200 C 102.045 305.652,101.889 305.676,101.736 305.300 C 101.624 305.022,100.852 304.800,100.000 304.800 C 99.148 304.800,98.376 305.022,98.264 305.300 C 98.111 305.676,97.955 305.652,97.630 305.200 C 97.248 304.667,97.152 304.667,96.770 305.200 C 96.445 305.652,96.289 305.676,96.136 305.300 C 96.025 305.025,95.588 304.800,95.167 304.800 C 94.443 304.800,94.400 305.160,94.400 311.229 M144.400 311.229 C 144.400 316.267,144.524 317.781,144.971 318.229 C 145.827 319.084,192.173 319.084,193.029 318.229 C 194.058 317.199,193.847 304.800,192.800 304.800 C 192.360 304.800,191.997 305.025,191.994 305.300 C 191.990 305.634,191.857 305.601,191.594 305.200 C 191.244 304.667,191.152 304.667,190.770 305.200 C 190.445 305.652,190.289 305.676,190.136 305.300 C 190.024 305.022,189.252 304.800,188.400 304.800 C 187.548 304.800,186.776 305.022,186.664 305.300 C 186.511 305.676,186.355 305.652,186.030 305.200 C 185.648 304.667,185.556 304.667,185.200 305.200 C 184.844 305.733,184.756 305.733,184.400 305.200 C 184.044 304.667,183.952 304.667,183.570 305.200 C 183.245 305.652,183.089 305.676,182.936 305.300 C 182.780 304.914,179.652 304.800,169.200 304.800 C 158.748 304.800,155.620 304.914,155.464 305.300 C 155.311 305.676,155.155 305.652,154.830 305.200 C 154.448 304.667,154.356 304.667,154.000 305.200 C 153.644 305.733,153.556 305.733,153.200 305.200 C 152.844 304.667,152.752 304.667,152.370 305.200 C 152.045 305.652,151.889 305.676,151.736 305.300 C 151.624 305.022,150.852 304.800,150.000 304.800 C 149.148 304.800,148.376 305.022,148.264 305.300 C 148.111 305.676,147.955 305.652,147.630 305.200 C 147.248 304.667,147.152 304.667,146.770 305.200 C 146.445 305.652,146.289 305.676,146.136 305.300 C 146.025 305.025,145.588 304.800,145.167 304.800 C 144.443 304.800,144.400 305.160,144.400 311.229 M194.400 311.229 C 194.400 316.267,194.524 317.781,194.971 318.229 C 195.827 319.084,242.173 319.084,243.029 318.229 C 244.058 317.199,243.847 304.800,242.800 304.800 C 242.360 304.800,241.997 305.025,241.994 305.300 C 241.990 305.634,241.857 305.601,241.594 305.200 C 241.244 304.667,241.152 304.667,240.770 305.200 C 240.445 305.652,240.289 305.676,240.136 305.300 C 240.024 305.022,239.252 304.800,238.400 304.800 C 237.548 304.800,236.776 305.022,236.664 305.300 C 236.511 305.676,236.355 305.652,236.030 305.200 C 235.648 304.667,235.556 304.667,235.200 305.200 C 234.844 305.733,234.756 305.733,234.400 305.200 C 234.044 304.667,233.952 304.667,233.570 305.200 C 233.245 305.652,233.089 305.676,232.936 305.300 C 232.780 304.914,229.652 304.800,219.200 304.800 C 208.748 304.800,205.620 304.914,205.464 305.300 C 205.311 305.676,205.155 305.652,204.830 305.200 C 204.448 304.667,204.356 304.667,204.000 305.200 C 203.644 305.733,203.556 305.733,203.200 305.200 C 202.844 304.667,202.752 304.667,202.370 305.200 C 202.045 305.652,201.889 305.676,201.736 305.300 C 201.624 305.022,200.852 304.800,200.000 304.800 C 199.148 304.800,198.376 305.022,198.264 305.300 C 198.111 305.676,197.955 305.652,197.630 305.200 C 197.248 304.667,197.152 304.667,196.770 305.200 C 196.445 305.652,196.289 305.676,196.136 305.300 C 196.025 305.025,195.588 304.800,195.167 304.800 C 194.443 304.800,194.400 305.160,194.400 311.229 M244.400 311.229 C 244.400 316.267,244.524 317.781,244.971 318.229 C 245.827 319.084,292.173 319.084,293.029 318.229 C 294.058 317.199,293.847 304.800,292.800 304.800 C 292.360 304.800,291.997 305.025,291.994 305.300 C 291.990 305.634,291.857 305.601,291.594 305.200 C 291.244 304.667,291.152 304.667,290.770 305.200 C 290.445 305.652,290.289 305.676,290.136 305.300 C 290.024 305.022,289.252 304.800,288.400 304.800 C 287.548 304.800,286.776 305.022,286.664 305.300 C 286.511 305.676,286.355 305.652,286.030 305.200 C 285.648 304.667,285.556 304.667,285.200 305.200 C 284.844 305.733,284.756 305.733,284.400 305.200 C 284.044 304.667,283.952 304.667,283.570 305.200 C 283.245 305.652,283.089 305.676,282.936 305.300 C 282.780 304.914,279.652 304.800,269.200 304.800 C 258.748 304.800,255.620 304.914,255.464 305.300 C 255.311 305.676,255.155 305.652,254.830 305.200 C 254.448 304.667,254.356 304.667,254.000 305.200 C 253.644 305.733,253.556 305.733,253.200 305.200 C 252.844 304.667,252.752 304.667,252.370 305.200 C 252.045 305.652,251.889 305.676,251.736 305.300 C 251.624 305.022,250.852 304.800,250.000 304.800 C 249.148 304.800,248.376 305.022,248.264 305.300 C 248.111 305.676,247.955 305.652,247.630 305.200 C 247.248 304.667,247.152 304.667,246.770 305.200 C 246.445 305.652,246.289 305.676,246.136 305.300 C 246.025 305.025,245.588 304.800,245.167 304.800 C 244.443 304.800,244.400 305.160,244.400 311.229 " stroke="none" fill="#fcfcfc" fill-rule="evenodd"></path><path id="path1" d="M270.100 120.198 C 269.751 120.595,269.600 122.459,269.600 126.383 L 269.600 132.000 263.971 132.000 C 256.780 132.000,257.200 131.580,257.200 138.771 L 257.200 144.400 232.771 144.400 C 212.133 144.400,208.254 144.489,207.771 144.971 C 207.328 145.414,207.200 146.853,207.200 151.371 L 207.200 157.200 201.371 157.200 C 193.950 157.200,194.400 156.763,194.400 163.971 L 194.400 169.600 163.771 169.600 C 137.760 169.600,133.057 169.686,132.571 170.171 C 132.130 170.613,132.000 172.027,132.000 176.371 L 132.000 182.000 126.371 182.000 C 119.180 182.000,119.600 181.580,119.600 188.771 L 119.600 194.400 113.971 194.400 C 106.763 194.400,107.200 193.950,107.200 201.371 L 107.200 207.200 101.371 207.200 C 93.950 207.200,94.400 206.763,94.400 213.971 L 94.400 219.600 88.771 219.600 C 81.425 219.600,82.000 218.822,82.000 228.771 L 82.000 236.800 83.167 236.800 C 83.808 236.800,84.425 236.575,84.536 236.300 C 84.689 235.924,84.845 235.948,85.170 236.400 C 85.552 236.933,85.648 236.933,86.030 236.400 C 86.355 235.948,86.511 235.924,86.664 236.300 C 86.908 236.901,90.800 236.995,90.800 236.400 C 90.800 235.824,91.895 235.906,92.136 236.500 C 92.289 236.876,92.445 236.852,92.770 236.400 C 93.152 235.867,93.248 235.867,93.630 236.400 C 93.955 236.852,94.111 236.876,94.264 236.500 C 94.375 236.225,94.728 236.000,95.047 236.000 C 95.817 236.000,98.400 233.392,98.400 232.613 C 98.400 232.276,98.580 232.000,98.800 232.000 C 99.020 232.000,99.200 231.100,99.200 230.000 C 99.200 228.900,99.380 228.000,99.600 228.000 C 99.820 228.000,100.000 227.722,100.000 227.382 C 100.000 225.931,101.957 224.711,104.630 224.497 C 106.044 224.383,107.200 224.135,107.200 223.945 C 107.200 223.755,107.386 223.600,107.613 223.600 C 108.258 223.600,110.800 220.899,110.800 220.213 C 110.800 219.876,110.980 219.600,111.200 219.600 C 111.420 219.600,111.600 218.700,111.600 217.600 C 111.600 216.500,111.780 215.600,112.000 215.600 C 112.220 215.600,112.400 215.322,112.400 214.982 C 112.400 214.182,114.182 212.400,114.982 212.400 C 115.322 212.400,115.600 212.220,115.600 212.000 C 115.600 211.780,116.500 211.600,117.600 211.600 C 118.700 211.600,119.600 211.420,119.600 211.200 C 119.600 210.980,119.876 210.800,120.213 210.800 C 120.899 210.800,123.600 208.258,123.600 207.613 C 123.600 207.386,123.755 207.200,123.945 207.200 C 124.135 207.200,124.383 206.044,124.497 204.630 C 124.711 201.957,125.931 200.000,127.382 200.000 C 127.722 200.000,128.000 199.820,128.000 199.600 C 128.000 199.380,128.900 199.200,130.000 199.200 C 131.100 199.200,132.000 199.020,132.000 198.800 C 132.000 198.580,132.276 198.400,132.613 198.400 C 133.409 198.400,136.000 195.809,136.000 195.013 C 136.000 194.676,136.180 194.400,136.400 194.400 C 136.620 194.400,136.800 193.590,136.800 192.600 C 136.800 191.610,136.980 190.800,137.200 190.800 C 137.420 190.800,137.600 190.522,137.600 190.182 C 137.600 189.842,138.042 189.122,138.582 188.582 C 139.122 188.042,139.842 187.600,140.182 187.600 C 140.522 187.600,140.800 187.420,140.800 187.200 C 140.800 186.937,150.000 186.800,167.600 186.800 C 185.200 186.800,194.400 186.663,194.400 186.400 C 194.400 186.180,194.676 186.000,195.013 186.000 C 195.351 186.000,196.251 185.376,197.013 184.613 C 197.776 183.851,198.400 182.951,198.400 182.613 C 198.400 182.276,198.580 182.000,198.800 182.000 C 199.020 182.000,199.200 181.100,199.200 180.000 C 199.200 178.900,199.380 178.000,199.600 178.000 C 199.820 178.000,200.000 177.722,200.000 177.382 C 200.000 175.931,201.957 174.711,204.630 174.497 C 206.044 174.383,207.200 174.135,207.200 173.945 C 207.200 173.755,207.386 173.600,207.613 173.600 C 208.258 173.600,210.800 170.899,210.800 170.213 C 210.800 169.876,210.980 169.600,211.200 169.600 C 211.420 169.600,211.600 168.700,211.600 167.600 C 211.600 166.500,211.780 165.600,212.000 165.600 C 212.220 165.600,212.400 165.322,212.400 164.982 C 212.400 164.182,214.182 162.400,214.982 162.400 C 215.322 162.400,215.600 162.220,215.600 162.000 C 215.600 161.738,222.800 161.600,236.400 161.600 C 250.000 161.600,257.200 161.462,257.200 161.200 C 257.200 160.980,257.386 160.800,257.613 160.800 C 258.151 160.800,260.800 158.151,260.800 157.613 C 260.800 157.386,260.980 157.200,261.200 157.200 C 261.420 157.200,261.600 156.300,261.600 155.200 C 261.600 154.100,261.780 153.200,262.000 153.200 C 262.220 153.200,262.400 152.922,262.400 152.582 C 262.400 151.782,264.182 150.000,264.982 150.000 C 265.322 150.000,265.600 149.820,265.600 149.600 C 265.600 149.380,266.500 149.200,267.600 149.200 C 268.700 149.200,269.600 149.020,269.600 148.800 C 269.600 148.580,269.876 148.400,270.213 148.400 C 271.009 148.400,273.600 145.809,273.600 145.013 C 273.600 144.676,273.755 144.400,273.944 144.400 C 274.134 144.400,274.386 143.330,274.505 142.022 C 274.729 139.547,275.996 137.600,277.382 137.600 C 277.722 137.600,278.000 137.420,278.000 137.200 C 278.000 136.980,278.885 136.800,279.967 136.800 C 281.165 136.800,282.013 136.605,282.136 136.300 C 282.289 135.922,282.452 135.947,282.800 136.400 C 283.148 136.853,283.311 136.878,283.464 136.500 C 283.704 135.907,285.200 135.821,285.200 136.400 C 285.200 136.995,289.092 136.901,289.336 136.300 C 289.489 135.924,289.645 135.948,289.970 136.400 C 290.352 136.933,290.448 136.933,290.830 136.400 C 291.155 135.948,291.311 135.924,291.464 136.300 C 291.575 136.575,292.102 136.800,292.633 136.800 L 293.600 136.800 293.600 128.771 C 293.600 122.347,293.486 120.629,293.029 120.171 C 292.187 119.330,270.843 119.355,270.100 120.198 M244.900 182.598 C 244.505 183.047,244.400 195.339,244.400 241.183 L 244.400 299.200 245.567 299.200 C 246.208 299.200,246.825 298.975,246.936 298.700 C 247.089 298.324,247.245 298.348,247.570 298.800 C 247.952 299.333,248.048 299.333,248.430 298.800 C 248.755 298.348,248.911 298.324,249.064 298.700 C 249.308 299.301,253.200 299.395,253.200 298.800 C 253.200 298.221,254.696 298.307,254.936 298.900 C 255.089 299.278,255.252 299.253,255.600 298.800 C 255.948 298.347,256.111 298.322,256.264 298.700 C 256.420 299.085,259.388 299.200,269.200 299.200 C 279.012 299.200,281.980 299.085,282.136 298.700 C 282.289 298.322,282.452 298.347,282.800 298.800 C 283.148 299.253,283.311 299.278,283.464 298.900 C 283.704 298.307,285.200 298.221,285.200 298.800 C 285.200 299.395,289.092 299.301,289.336 298.700 C 289.489 298.324,289.645 298.348,289.970 298.800 C 290.352 299.333,290.448 299.333,290.830 298.800 C 291.155 298.348,291.311 298.324,291.464 298.700 C 291.575 298.975,292.102 299.200,292.633 299.200 L 293.600 299.200 293.600 241.171 C 293.600 191.413,293.519 183.061,293.029 182.571 C 292.177 181.719,245.651 181.745,244.900 182.598 M194.900 207.798 C 194.506 208.246,194.400 218.019,194.400 253.783 L 194.400 299.200 195.567 299.200 C 196.208 299.200,196.825 298.975,196.936 298.700 C 197.089 298.324,197.245 298.348,197.570 298.800 C 197.952 299.333,198.048 299.333,198.430 298.800 C 198.755 298.348,198.911 298.324,199.064 298.700 C 199.308 299.301,203.200 299.395,203.200 298.800 C 203.200 298.221,204.696 298.307,204.936 298.900 C 205.089 299.278,205.252 299.253,205.600 298.800 C 205.948 298.347,206.111 298.322,206.264 298.700 C 206.420 299.085,209.388 299.200,219.200 299.200 C 229.012 299.200,231.980 299.085,232.136 298.700 C 232.289 298.322,232.452 298.347,232.800 298.800 C 233.148 299.253,233.311 299.278,233.464 298.900 C 233.704 298.307,235.200 298.221,235.200 298.800 C 235.200 299.395,239.092 299.301,239.336 298.700 C 239.489 298.324,239.645 298.348,239.970 298.800 C 240.352 299.333,240.448 299.333,240.830 298.800 C 241.155 298.348,241.311 298.324,241.464 298.700 C 241.575 298.975,242.102 299.200,242.633 299.200 L 243.600 299.200 243.600 253.771 C 243.600 214.933,243.517 208.260,243.029 207.771 C 242.177 206.919,195.651 206.945,194.900 207.798 M144.900 232.598 C 144.509 233.043,144.400 240.339,144.400 266.183 L 144.400 299.200 145.567 299.200 C 146.208 299.200,146.825 298.975,146.936 298.700 C 147.089 298.324,147.245 298.348,147.570 298.800 C 147.952 299.333,148.048 299.333,148.430 298.800 C 148.755 298.348,148.911 298.324,149.064 298.700 C 149.308 299.301,153.200 299.395,153.200 298.800 C 153.200 298.221,154.696 298.307,154.936 298.900 C 155.089 299.278,155.252 299.253,155.600 298.800 C 155.948 298.347,156.111 298.322,156.264 298.700 C 156.420 299.085,159.388 299.200,169.200 299.200 C 179.012 299.200,181.980 299.085,182.136 298.700 C 182.289 298.322,182.452 298.347,182.800 298.800 C 183.148 299.253,183.311 299.278,183.464 298.900 C 183.704 298.307,185.200 298.221,185.200 298.800 C 185.200 299.395,189.092 299.301,189.336 298.700 C 189.489 298.324,189.645 298.348,189.970 298.800 C 190.352 299.333,190.448 299.333,190.830 298.800 C 191.155 298.348,191.311 298.324,191.464 298.700 C 191.575 298.975,192.102 299.200,192.633 299.200 L 193.600 299.200 193.600 266.171 C 193.600 238.080,193.515 233.057,193.029 232.571 C 192.177 231.719,145.651 231.745,144.900 232.598 M94.900 257.798 C 94.514 258.237,94.400 263.019,94.400 278.783 L 94.400 299.200 95.567 299.200 C 96.208 299.200,96.825 298.975,96.936 298.700 C 97.089 298.324,97.245 298.348,97.570 298.800 C 97.952 299.333,98.048 299.333,98.430 298.800 C 98.755 298.348,98.911 298.324,99.064 298.700 C 99.308 299.301,103.200 299.395,103.200 298.800 C 103.200 298.221,104.696 298.307,104.936 298.900 C 105.089 299.278,105.252 299.253,105.600 298.800 C 105.948 298.347,106.111 298.322,106.264 298.700 C 106.420 299.085,109.388 299.200,119.200 299.200 C 129.012 299.200,131.980 299.085,132.136 298.700 C 132.289 298.322,132.452 298.347,132.800 298.800 C 133.148 299.253,133.311 299.278,133.464 298.900 C 133.704 298.307,135.200 298.221,135.200 298.800 C 135.200 299.395,139.092 299.301,139.336 298.700 C 139.489 298.324,139.645 298.348,139.970 298.800 C 140.352 299.333,140.448 299.333,140.830 298.800 C 141.155 298.348,141.311 298.324,141.464 298.700 C 141.575 298.975,142.102 299.200,142.633 299.200 L 143.600 299.200 143.600 278.771 C 143.600 261.600,143.509 258.252,143.029 257.771 C 142.177 256.919,95.651 256.945,94.900 257.798 " stroke="none" fill="#4c4c4c" fill-rule="evenodd"></path><path id="path2" d="" stroke="none" fill="#d4100a4" fill-rule="evenodd"></path><path id="path3" d="M280.400 137.200 C 280.400 137.420,279.860 137.600,279.200 137.600 C 278.540 137.600,278.000 137.780,278.000 138.000 C 278.000 138.220,277.717 138.400,277.371 138.400 C 277.026 138.400,276.486 138.657,276.171 138.971 C 275.857 139.286,275.600 139.826,275.600 140.171 C 275.600 140.517,275.433 140.800,275.229 140.800 C 275.025 140.800,274.734 141.790,274.583 143.000 C 274.432 144.210,274.149 145.200,273.954 145.200 C 273.759 145.200,273.600 145.478,273.600 145.818 C 273.600 146.618,271.818 148.400,271.018 148.400 C 270.678 148.400,270.400 148.580,270.400 148.800 C 270.400 149.020,269.860 149.200,269.200 149.200 C 268.540 149.200,268.000 149.380,268.000 149.600 C 268.000 149.820,267.460 150.000,266.800 150.000 C 266.140 150.000,265.600 150.180,265.600 150.400 C 265.600 150.620,265.317 150.800,264.971 150.800 C 264.163 150.800,263.200 151.763,263.200 152.571 C 263.200 152.917,263.020 153.200,262.800 153.200 C 262.580 153.200,262.400 153.740,262.400 154.400 C 262.400 155.060,262.220 155.600,262.000 155.600 C 261.780 155.600,261.600 156.140,261.600 156.800 C 261.600 157.460,261.420 158.000,261.200 158.000 C 260.980 158.000,260.800 158.188,260.800 158.418 C 260.800 158.961,258.961 160.800,258.418 160.800 C 258.188 160.800,258.000 160.980,258.000 161.200 C 258.000 161.461,251.067 161.600,238.000 161.600 C 224.933 161.600,218.000 161.739,218.000 162.000 C 218.000 162.220,217.460 162.400,216.800 162.400 C 216.140 162.400,215.600 162.580,215.600 162.800 C 215.600 163.020,215.317 163.200,214.971 163.200 C 214.163 163.200,213.200 164.163,213.200 164.971 C 213.200 165.317,213.020 165.600,212.800 165.600 C 212.580 165.600,212.400 166.140,212.400 166.800 C 212.400 167.460,212.220 168.000,212.000 168.000 C 211.780 168.000,211.600 168.540,211.600 169.200 C 211.600 169.860,211.420 170.400,211.200 170.400 C 210.980 170.400,210.800 170.678,210.800 171.018 C 210.800 171.714,209.060 173.600,208.418 173.600 C 208.188 173.600,208.000 173.762,208.000 173.961 C 208.000 174.159,206.920 174.447,205.600 174.600 C 204.280 174.753,203.200 175.041,203.200 175.239 C 203.200 175.438,202.917 175.600,202.571 175.600 C 201.763 175.600,200.800 176.563,200.800 177.371 C 200.800 177.717,200.620 178.000,200.400 178.000 C 200.180 178.000,200.000 178.540,200.000 179.200 C 200.000 179.860,199.820 180.400,199.600 180.400 C 199.380 180.400,199.200 180.940,199.200 181.600 C 199.200 182.260,199.020 182.800,198.800 182.800 C 198.580 182.800,198.400 183.078,198.400 183.418 C 198.400 184.218,196.618 186.000,195.818 186.000 C 195.478 186.000,195.200 186.180,195.200 186.400 C 195.200 186.663,186.200 186.800,169.000 186.800 C 151.800 186.800,142.800 186.937,142.800 187.200 C 142.800 187.420,142.350 187.600,141.800 187.600 C 141.250 187.600,140.800 187.780,140.800 188.000 C 140.800 188.220,140.517 188.400,140.171 188.400 C 139.363 188.400,138.400 189.363,138.400 190.171 C 138.400 190.517,138.220 190.800,138.000 190.800 C 137.780 190.800,137.600 191.250,137.600 191.800 C 137.600 192.350,137.420 192.800,137.200 192.800 C 136.980 192.800,136.800 193.340,136.800 194.000 C 136.800 194.660,136.620 195.200,136.400 195.200 C 136.180 195.200,136.000 195.478,136.000 195.818 C 136.000 196.618,134.218 198.400,133.418 198.400 C 133.078 198.400,132.800 198.580,132.800 198.800 C 132.800 199.020,132.260 199.200,131.600 199.200 C 130.940 199.200,130.400 199.380,130.400 199.600 C 130.400 199.820,129.860 200.000,129.200 200.000 C 128.540 200.000,128.000 200.180,128.000 200.400 C 128.000 200.620,127.717 200.800,127.371 200.800 C 126.563 200.800,125.600 201.763,125.600 202.571 C 125.600 202.917,125.438 203.200,125.239 203.200 C 125.041 203.200,124.753 204.280,124.600 205.600 C 124.447 206.920,124.159 208.000,123.961 208.000 C 123.762 208.000,123.600 208.188,123.600 208.418 C 123.600 209.060,121.714 210.800,121.018 210.800 C 120.678 210.800,120.400 210.980,120.400 211.200 C 120.400 211.420,119.860 211.600,119.200 211.600 C 118.540 211.600,118.000 211.780,118.000 212.000 C 118.000 212.220,117.460 212.400,116.800 212.400 C 116.140 212.400,115.600 212.580,115.600 212.800 C 115.600 213.020,115.317 213.200,114.971 213.200 C 114.163 213.200,113.200 214.163,113.200 214.971 C 113.200 215.317,113.020 215.600,112.800 215.600 C 112.580 215.600,112.400 216.140,112.400 216.800 C 112.400 217.460,112.220 218.000,112.000 218.000 C 111.780 218.000,111.600 218.540,111.600 219.200 C 111.600 219.860,111.420 220.400,111.200 220.400 C 110.980 220.400,110.800 220.678,110.800 221.018 C 110.800 221.714,109.060 223.600,108.418 223.600 C 108.188 223.600,108.000 223.762,108.000 223.961 C 108.000 224.159,106.920 224.447,105.600 224.600 C 104.280 224.753,103.200 225.041,103.200 225.239 C 103.200 225.438,102.917 225.600,102.571 225.600 C 101.763 225.600,100.800 226.563,100.800 227.371 C 100.800 227.717,100.620 228.000,100.400 228.000 C 100.180 228.000,100.000 228.540,100.000 229.200 C 100.000 229.860,99.820 230.400,99.600 230.400 C 99.380 230.400,99.200 230.940,99.200 231.600 C 99.200 232.260,99.020 232.800,98.800 232.800 C 98.580 232.800,98.400 233.078,98.400 233.418 C 98.400 234.218,96.618 236.000,95.818 236.000 C 95.478 236.000,95.200 236.180,95.200 236.400 C 95.200 236.651,92.733 236.800,88.600 236.800 L 82.000 236.800 82.000 238.629 C 82.000 241.555,82.126 241.600,90.371 241.600 C 94.924 241.600,97.600 241.452,97.600 241.200 C 97.600 240.980,98.236 240.800,99.013 240.800 C 101.007 240.800,103.200 238.607,103.200 236.613 C 103.200 235.836,103.380 235.200,103.600 235.200 C 103.820 235.200,104.000 234.384,104.000 233.387 C 104.000 230.871,105.981 228.800,108.387 228.800 C 109.274 228.800,110.000 228.620,110.000 228.400 C 110.000 228.180,110.636 228.000,111.413 228.000 C 113.292 228.000,115.600 225.802,115.600 224.013 C 115.600 223.346,115.780 222.800,116.000 222.800 C 116.220 222.800,116.400 221.984,116.400 220.987 C 116.400 218.371,118.371 216.400,120.987 216.400 C 121.984 216.400,122.800 216.220,122.800 216.000 C 122.800 215.780,123.346 215.600,124.013 215.600 C 125.802 215.600,128.000 213.292,128.000 211.413 C 128.000 210.636,128.180 210.000,128.400 210.000 C 128.620 210.000,128.800 209.274,128.800 208.387 C 128.800 205.981,130.871 204.000,133.387 204.000 C 134.384 204.000,135.200 203.820,135.200 203.600 C 135.200 203.380,135.836 203.200,136.613 203.200 C 138.607 203.200,140.800 201.007,140.800 199.013 C 140.800 198.236,140.980 197.600,141.200 197.600 C 141.420 197.600,141.600 196.708,141.600 195.618 C 141.600 194.028,141.801 193.435,142.618 192.618 L 143.636 191.600 170.618 191.600 C 188.339 191.600,197.600 191.463,197.600 191.200 C 197.600 190.980,198.236 190.800,199.013 190.800 C 201.007 190.800,203.200 188.607,203.200 186.613 C 203.200 185.836,203.380 185.200,203.600 185.200 C 203.820 185.200,204.000 184.384,204.000 183.387 C 204.000 180.871,205.981 178.800,208.387 178.800 C 209.274 178.800,210.000 178.620,210.000 178.400 C 210.000 178.180,210.636 178.000,211.413 178.000 C 213.292 178.000,215.600 175.802,215.600 174.013 C 215.600 173.346,215.780 172.800,216.000 172.800 C 216.220 172.800,216.400 171.984,216.400 170.987 C 216.400 169.451,216.612 168.961,217.787 167.787 L 219.173 166.400 239.587 166.400 C 252.929 166.400,260.000 166.261,260.000 166.000 C 260.000 165.780,260.636 165.600,261.413 165.600 C 263.407 165.600,265.600 163.407,265.600 161.413 C 265.600 160.636,265.780 160.000,266.000 160.000 C 266.220 160.000,266.400 159.274,266.400 158.387 C 266.400 155.981,268.471 154.000,270.987 154.000 C 271.984 154.000,272.800 153.820,272.800 153.600 C 272.800 153.380,273.346 153.200,274.013 153.200 C 275.802 153.200,278.000 150.892,278.000 149.013 C 278.000 148.236,278.180 147.600,278.400 147.600 C 278.620 147.600,278.800 146.772,278.800 145.760 C 278.800 144.218,279.001 143.733,280.042 142.760 L 281.285 141.600 286.871 141.600 C 293.303 141.600,293.600 141.469,293.600 138.629 L 293.600 136.800 287.000 136.800 C 282.867 136.800,280.400 136.949,280.400 137.200 M94.400 301.029 C 94.400 304.202,92.726 304.000,119.000 304.000 C 145.274 304.000,143.600 304.202,143.600 301.029 L 143.600 299.200 119.000 299.200 L 94.400 299.200 94.400 301.029 M144.400 301.029 C 144.400 304.202,142.726 304.000,169.000 304.000 C 195.274 304.000,193.600 304.202,193.600 301.029 L 193.600 299.200 169.000 299.200 L 144.400 299.200 144.400 301.029 M194.400 301.029 C 194.400 304.202,192.726 304.000,219.000 304.000 C 245.274 304.000,243.600 304.202,243.600 301.029 L 243.600 299.200 219.000 299.200 L 194.400 299.200 194.400 301.029 M244.400 301.029 C 244.400 304.202,242.726 304.000,269.000 304.000 C 295.274 304.000,293.600 304.202,293.600 301.029 L 293.600 299.200 269.000 299.200 L 244.400 299.200 244.400 301.029 " stroke="none" fill="#78a8a4" fill-rule="evenodd"></path><path id="path4" d="M283.600 136.400 C 283.600 136.620,283.960 136.800,284.400 136.800 C 284.840 136.800,285.200 136.620,285.200 136.400 C 285.200 136.180,284.840 136.000,284.400 136.000 C 283.960 136.000,283.600 136.180,283.600 136.400 M278.000 137.200 C 278.000 137.420,277.722 137.600,277.382 137.600 C 276.283 137.600,274.827 139.459,274.662 141.073 C 274.576 141.913,274.584 142.195,274.680 141.700 C 274.775 141.205,275.021 140.800,275.227 140.800 C 275.432 140.800,275.600 140.517,275.600 140.171 C 275.600 139.363,276.563 138.400,277.371 138.400 C 277.717 138.400,278.000 138.220,278.000 138.000 C 278.000 137.780,278.540 137.600,279.200 137.600 C 279.860 137.600,280.400 137.420,280.400 137.200 C 280.400 136.980,279.860 136.800,279.200 136.800 C 278.540 136.800,278.000 136.980,278.000 137.200 M272.060 147.051 C 271.543 147.602,271.217 148.150,271.336 148.269 C 271.552 148.485,273.600 146.630,273.600 146.218 C 273.600 145.747,272.956 146.095,272.060 147.051 M265.600 149.600 C 265.600 149.820,265.322 150.000,264.982 150.000 C 264.182 150.000,262.400 151.782,262.400 152.582 C 262.400 152.922,262.220 153.200,262.000 153.200 C 261.780 153.200,261.600 153.740,261.600 154.400 C 261.600 155.060,261.780 155.600,262.000 155.600 C 262.220 155.600,262.400 155.060,262.400 154.400 C 262.400 153.740,262.580 153.200,262.800 153.200 C 263.020 153.200,263.200 152.917,263.200 152.571 C 263.200 151.763,264.163 150.800,264.971 150.800 C 265.317 150.800,265.600 150.620,265.600 150.400 C 265.600 150.180,266.140 150.000,266.800 150.000 C 267.460 150.000,268.000 149.820,268.000 149.600 C 268.000 149.380,267.460 149.200,266.800 149.200 C 266.140 149.200,265.600 149.380,265.600 149.600 M259.260 159.451 C 258.743 160.002,258.417 160.550,258.536 160.669 C 258.752 160.885,260.800 159.030,260.800 158.618 C 260.800 158.147,260.156 158.495,259.260 159.451 M215.600 162.000 C 215.600 162.220,215.322 162.400,214.982 162.400 C 214.182 162.400,212.400 164.182,212.400 164.982 C 212.400 165.322,212.220 165.600,212.000 165.600 C 211.780 165.600,211.600 166.140,211.600 166.800 C 211.600 167.460,211.780 168.000,212.000 168.000 C 212.220 168.000,212.400 167.460,212.400 166.800 C 212.400 166.140,212.580 165.600,212.800 165.600 C 213.020 165.600,213.200 165.317,213.200 164.971 C 213.200 164.163,214.163 163.200,214.971 163.200 C 215.317 163.200,215.600 163.020,215.600 162.800 C 215.600 162.580,216.140 162.400,216.800 162.400 C 217.460 162.400,218.000 162.220,218.000 162.000 C 218.000 161.780,217.460 161.600,216.800 161.600 C 216.140 161.600,215.600 161.780,215.600 162.000 M209.260 172.251 C 208.743 172.802,208.417 173.350,208.536 173.469 C 208.752 173.685,210.800 171.830,210.800 171.418 C 210.800 170.947,210.156 171.295,209.260 172.251 M202.641 174.687 C 201.629 174.946,200.000 176.609,200.000 177.382 C 200.000 177.722,199.820 178.000,199.600 178.000 C 199.380 178.000,199.200 178.540,199.200 179.200 C 199.200 179.860,199.380 180.400,199.600 180.400 C 199.820 180.400,200.000 179.860,200.000 179.200 C 200.000 178.540,200.180 178.000,200.400 178.000 C 200.620 178.000,200.800 177.717,200.800 177.371 C 200.800 177.026,201.057 176.486,201.371 176.171 C 201.686 175.857,202.226 175.600,202.571 175.600 C 202.917 175.600,203.200 175.431,203.200 175.225 C 203.200 175.019,203.785 174.778,204.500 174.689 C 205.787 174.530,205.788 174.528,204.600 174.510 C 203.940 174.501,203.059 174.580,202.641 174.687 M196.860 184.651 C 196.343 185.202,196.017 185.750,196.136 185.869 C 196.352 186.085,198.400 184.230,198.400 183.818 C 198.400 183.347,197.756 183.695,196.860 184.651 M140.800 187.200 C 140.800 187.420,140.522 187.600,140.182 187.600 C 139.842 187.600,139.122 188.042,138.582 188.582 C 138.042 189.122,137.600 189.842,137.600 190.182 C 137.600 190.522,137.420 190.800,137.200 190.800 C 136.980 190.800,136.800 191.250,136.800 191.800 C 136.800 192.350,136.980 192.800,137.200 192.800 C 137.420 192.800,137.600 192.350,137.600 191.800 C 137.600 191.250,137.780 190.800,138.000 190.800 C 138.220 190.800,138.400 190.517,138.400 190.171 C 138.400 189.826,138.657 189.286,138.971 188.971 C 139.286 188.657,139.826 188.400,140.171 188.400 C 140.517 188.400,140.800 188.220,140.800 188.000 C 140.800 187.780,141.250 187.600,141.800 187.600 C 142.350 187.600,142.800 187.420,142.800 187.200 C 142.800 186.980,142.350 186.800,141.800 186.800 C 141.250 186.800,140.800 186.980,140.800 187.200 M134.460 197.051 C 133.943 197.602,133.617 198.150,133.736 198.269 C 133.952 198.485,136.000 196.630,136.000 196.218 C 136.000 195.747,135.356 196.095,134.460 197.051 M128.000 199.600 C 128.000 199.820,127.722 200.000,127.382 200.000 C 126.195 200.000,124.795 201.886,124.646 203.688 C 124.568 204.630,124.582 204.905,124.677 204.300 C 124.773 203.695,125.019 203.200,125.225 203.200 C 125.431 203.200,125.600 202.917,125.600 202.571 C 125.600 202.226,125.857 201.686,126.171 201.371 C 126.486 201.057,127.026 200.800,127.371 200.800 C 127.717 200.800,128.000 200.620,128.000 200.400 C 128.000 200.180,128.540 200.000,129.200 200.000 C 129.860 200.000,130.400 199.820,130.400 199.600 C 130.400 199.380,129.860 199.200,129.200 199.200 C 128.540 199.200,128.000 199.380,128.000 199.600 M122.060 209.451 C 121.543 210.002,121.217 210.550,121.336 210.669 C 121.552 210.885,123.600 209.030,123.600 208.618 C 123.600 208.147,122.956 208.495,122.060 209.451 M115.600 212.000 C 115.600 212.220,115.322 212.400,114.982 212.400 C 114.182 212.400,112.400 214.182,112.400 214.982 C 112.400 215.322,112.220 215.600,112.000 215.600 C 111.780 215.600,111.600 216.140,111.600 216.800 C 111.600 217.460,111.780 218.000,112.000 218.000 C 112.220 218.000,112.400 217.460,112.400 216.800 C 112.400 216.140,112.580 215.600,112.800 215.600 C 113.020 215.600,113.200 215.317,113.200 214.971 C 113.200 214.163,114.163 213.200,114.971 213.200 C 115.317 213.200,115.600 213.020,115.600 212.800 C 115.600 212.580,116.140 212.400,116.800 212.400 C 117.460 212.400,118.000 212.220,118.000 212.000 C 118.000 211.780,117.460 211.600,116.800 211.600 C 116.140 211.600,115.600 211.780,115.600 212.000 M109.260 222.251 C 108.743 222.802,108.417 223.350,108.536 223.469 C 108.752 223.685,110.800 221.830,110.800 221.418 C 110.800 220.947,110.156 221.295,109.260 222.251 M102.641 224.687 C 101.629 224.946,100.000 226.609,100.000 227.382 C 100.000 227.722,99.820 228.000,99.600 228.000 C 99.380 228.000,99.200 228.540,99.200 229.200 C 99.200 229.860,99.380 230.400,99.600 230.400 C 99.820 230.400,100.000 229.860,100.000 229.200 C 100.000 228.540,100.180 228.000,100.400 228.000 C 100.620 228.000,100.800 227.717,100.800 227.371 C 100.800 226.563,101.763 225.600,102.571 225.600 C 102.917 225.600,103.200 225.431,103.200 225.225 C 103.200 225.019,103.785 224.778,104.500 224.689 C 105.787 224.530,105.788 224.528,104.600 224.510 C 103.940 224.501,103.059 224.580,102.641 224.687 M96.860 234.651 C 96.343 235.202,96.017 235.750,96.136 235.869 C 96.352 236.085,98.400 234.230,98.400 233.818 C 98.400 233.347,97.756 233.695,96.860 234.651 M90.800 236.400 C 90.800 236.620,91.070 236.800,91.400 236.800 C 91.730 236.800,92.000 236.620,92.000 236.400 C 92.000 236.180,91.730 236.000,91.400 236.000 C 91.070 236.000,90.800 236.180,90.800 236.400 M103.200 298.800 C 103.200 299.020,103.560 299.200,104.000 299.200 C 104.440 299.200,104.800 299.020,104.800 298.800 C 104.800 298.580,104.440 298.400,104.000 298.400 C 103.560 298.400,103.200 298.580,103.200 298.800 M133.600 298.800 C 133.600 299.020,133.960 299.200,134.400 299.200 C 134.840 299.200,135.200 299.020,135.200 298.800 C 135.200 298.580,134.840 298.400,134.400 298.400 C 133.960 298.400,133.600 298.580,133.600 298.800 M153.200 298.800 C 153.200 299.020,153.560 299.200,154.000 299.200 C 154.440 299.200,154.800 299.020,154.800 298.800 C 154.800 298.580,154.440 298.400,154.000 298.400 C 153.560 298.400,153.200 298.580,153.200 298.800 M183.600 298.800 C 183.600 299.020,183.960 299.200,184.400 299.200 C 184.840 299.200,185.200 299.020,185.200 298.800 C 185.200 298.580,184.840 298.400,184.400 298.400 C 183.960 298.400,183.600 298.580,183.600 298.800 M203.200 298.800 C 203.200 299.020,203.560 299.200,204.000 299.200 C 204.440 299.200,204.800 299.020,204.800 298.800 C 204.800 298.580,204.440 298.400,204.000 298.400 C 203.560 298.400,203.200 298.580,203.200 298.800 M233.600 298.800 C 233.600 299.020,233.960 299.200,234.400 299.200 C 234.840 299.200,235.200 299.020,235.200 298.800 C 235.200 298.580,234.840 298.400,234.400 298.400 C 233.960 298.400,233.600 298.580,233.600 298.800 M253.200 298.800 C 253.200 299.020,253.560 299.200,254.000 299.200 C 254.440 299.200,254.800 299.020,254.800 298.800 C 254.800 298.580,254.440 298.400,254.000 298.400 C 253.560 298.400,253.200 298.580,253.200 298.800 M283.600 298.800 C 283.600 299.020,283.960 299.200,284.400 299.200 C 284.840 299.200,285.200 299.020,285.200 298.800 C 285.200 298.580,284.840 298.400,284.400 298.400 C 283.960 298.400,283.600 298.580,283.600 298.800 " stroke="none" fill="#784ca8" fill-rule="evenodd"></path></g></svg>