<svg id="svg" version="1.1" xmlns="http://www.w3.org/2000/svg" xmlns:xlink="http://www.w3.org/1999/xlink" width="400" height="250" viewBox="0, 0, 400,250"><g id="svgg"><path id="path0" d="M185.383 33.710 C 184.983 34.751,185.233 49.040,185.655 49.303 C 185.884 49.445,187.036 49.959,188.214 50.444 L 190.357 51.327 190.298 52.656 C 190.266 53.386,190.078 54.440,189.882 54.998 C 189.417 56.315,189.401 56.274,190.294 56.096 C 192.062 55.742,193.810 53.841,193.810 52.271 L 193.810 51.667 215.190 51.667 C 229.060 51.667,236.655 51.583,236.808 51.430 C 236.939 51.299,237.951 50.822,239.058 50.369 L 241.071 49.545 215.298 49.534 L 189.524 49.524 189.524 41.429 L 189.524 33.333 187.525 33.333 C 185.923 33.333,185.499 33.408,185.383 33.710 M168.463 60.974 C 168.018 62.206,167.995 63.111,167.925 81.711 L 167.852 101.160 158.747 101.235 L 149.643 101.310 148.253 101.960 C 144.647 103.650,142.870 106.741,143.569 110.108 C 143.878 111.594,143.983 111.662,144.735 110.862 C 146.709 108.761,149.499 108.305,159.881 108.387 L 168.214 108.452 168.646 109.881 C 169.472 112.611,168.985 112.381,173.931 112.381 L 178.257 112.381 178.533 111.775 C 178.704 111.401,178.810 109.803,178.810 107.608 L 178.810 104.048 174.048 104.048 L 169.286 104.048 169.251 99.583 C 169.232 97.128,169.152 87.147,169.073 77.403 L 168.929 59.687 168.463 60.974 M215.119 93.133 C 203.620 97.811,194.826 100.044,184.583 100.885 L 179.762 101.282 179.762 104.833 L 179.762 108.384 181.964 108.220 C 196.378 107.146,208.642 102.024,218.095 93.131 C 220.278 91.078,220.172 91.078,215.119 93.133 M99.915 96.213 C 85.675 128.497,104.459 166.007,138.929 174.122 C 144.388 175.408,146.037 175.547,157.490 175.695 L 168.195 175.833 168.622 177.262 C 169.433 179.975,168.981 179.762,173.931 179.762 L 178.257 179.762 178.533 179.155 C 178.704 178.782,178.810 177.183,178.810 174.989 L 178.810 171.429 174.086 171.429 L 169.363 171.429 169.205 161.747 C 169.119 156.422,169.044 146.431,169.040 139.544 L 169.032 127.024 168.512 128.333 C 167.993 129.637,167.991 129.729,167.921 149.133 L 167.852 168.623 157.200 168.504 C 146.104 168.381,144.588 168.265,139.524 167.148 C 123.808 163.684,110.163 153.131,103.342 139.167 C 98.199 128.639,97.439 119.230,100.117 99.286 C 100.742 94.634,100.725 94.377,99.915 96.213 M237.560 140.523 L 236.429 141.478 236.429 155.025 L 236.429 168.571 208.095 168.571 L 179.762 168.571 179.762 172.143 L 179.762 175.714 208.220 175.714 L 236.678 175.714 237.327 176.813 C 237.684 177.417,238.272 178.328,238.632 178.837 L 239.289 179.762 245.592 179.762 L 251.896 179.762 252.021 179.226 C 252.089 178.932,252.172 177.351,252.204 175.714 L 252.262 172.738 273.155 172.677 L 294.048 172.616 294.048 169.523 L 294.048 166.429 273.214 166.429 L 252.381 166.429 252.381 168.929 L 252.381 171.429 245.597 171.429 L 238.813 171.429 238.752 155.499 L 238.690 139.569 237.560 140.523 M21.722 141.667 C 21.722 142.125,21.771 142.313,21.831 142.083 C 21.891 141.854,21.891 141.479,21.831 141.250 C 21.771 141.021,21.722 141.208,21.722 141.667 M21.727 144.167 C 21.729 144.690,21.778 144.877,21.835 144.581 C 21.892 144.284,21.890 143.856,21.830 143.628 C 21.771 143.401,21.724 143.643,21.727 144.167 M296.243 169.464 L 296.310 172.500 298.333 172.500 L 300.357 172.500 300.425 169.662 C 300.504 166.326,300.587 166.437,298.029 166.432 L 296.176 166.429 296.243 169.464 M309.576 169.457 L 309.643 172.500 312.738 172.500 L 315.833 172.500 315.833 169.524 L 315.833 166.548 312.671 166.481 L 309.509 166.415 309.576 169.457 M316.957 169.450 L 317.024 172.500 318.043 172.574 L 319.062 172.647 318.995 169.597 L 318.929 166.548 317.909 166.474 L 316.890 166.400 316.957 169.450 M327.143 169.538 L 327.143 172.648 328.036 172.574 L 328.929 172.500 328.996 169.662 C 329.069 166.596,329.011 166.439,327.798 166.432 L 327.143 166.429 327.143 169.538 M329.576 169.456 L 329.643 172.500 332.091 172.568 L 334.538 172.636 334.471 169.592 L 334.405 166.548 331.957 166.480 L 329.509 166.412 329.576 169.456 M342.381 169.515 L 342.381 172.619 344.531 172.619 L 346.681 172.619 346.614 169.583 L 346.548 166.548 344.464 166.479 L 342.381 166.410 342.381 169.515 M352.671 169.452 L 352.738 172.500 354.114 172.572 L 355.491 172.643 355.424 169.595 L 355.357 166.548 353.981 166.476 L 352.605 166.404 352.671 169.452 M359.576 169.455 L 359.643 172.500 361.733 172.569 L 363.824 172.638 363.757 169.593 L 363.690 166.548 361.600 166.479 L 359.509 166.410 359.576 169.455 M367.195 169.447 C 367.258 172.319,367.290 172.500,367.738 172.500 C 368.534 172.500,368.469 166.584,367.671 166.471 L 367.128 166.394 367.195 169.447 M371.005 169.452 L 371.071 172.500 372.448 172.572 L 373.824 172.643 373.757 169.595 L 373.690 166.548 372.314 166.476 L 370.938 166.404 371.005 169.452 " stroke="none" fill="#902b2e" fill-rule="evenodd"></path><path id="path1" d="M147.381 32.302 C 126.957 34.340,109.341 42.098,95.476 55.162 L 93.214 57.293 90.763 57.690 C 35.860 66.571,3.509 125.295,25.285 176.548 C 48.721 231.706,119.055 246.749,163.608 206.132 L 165.907 204.037 169.204 203.457 C 186.670 200.386,202.741 192.021,215.293 179.469 C 216.834 177.928,218.095 176.560,218.095 176.429 C 218.095 176.046,180.363 176.105,180.063 176.488 C 179.935 176.652,179.638 177.509,179.403 178.393 C 179.169 179.277,178.874 180.000,178.749 180.000 C 178.623 180.000,178.582 179.839,178.658 179.643 C 178.733 179.446,178.703 179.286,178.592 179.286 C 178.480 179.286,178.333 179.500,178.264 179.762 C 178.146 180.215,177.940 180.238,173.978 180.238 L 169.817 180.238 169.422 179.635 C 169.204 179.304,168.924 179.096,168.799 179.173 C 168.674 179.251,168.571 179.200,168.571 179.062 C 168.571 178.923,168.685 178.810,168.824 178.810 C 168.962 178.810,169.008 178.701,168.926 178.568 C 168.844 178.434,168.677 178.387,168.555 178.463 C 168.433 178.538,168.332 178.459,168.330 178.288 C 168.328 178.116,168.258 177.718,168.174 177.403 C 168.057 176.967,168.095 176.877,168.333 177.023 C 168.541 177.152,168.588 177.124,168.473 176.938 C 168.378 176.784,168.208 176.716,168.095 176.786 C 167.813 176.960,167.554 176.489,167.754 176.165 C 167.868 175.981,167.985 175.999,168.143 176.225 C 168.326 176.486,168.351 176.479,168.272 176.190 C 168.219 175.994,167.984 175.796,167.750 175.751 C 167.489 175.700,167.387 175.769,167.486 175.929 C 167.602 176.117,164.998 176.190,158.228 176.190 C 151.069 176.190,148.824 176.122,148.869 175.907 C 148.902 175.751,148.714 175.585,148.452 175.537 C 148.061 175.466,148.040 175.495,148.333 175.698 C 148.597 175.881,148.303 175.946,147.202 175.949 C 146.175 175.951,145.733 175.865,145.774 175.669 C 145.807 175.513,145.619 175.347,145.357 175.299 C 144.966 175.228,144.945 175.257,145.238 175.460 C 145.513 175.650,145.391 175.708,144.702 175.711 C 144.136 175.713,143.831 175.611,143.869 175.431 C 143.902 175.275,143.714 175.108,143.452 175.061 C 143.061 174.990,143.040 175.018,143.333 175.222 C 143.619 175.419,143.559 175.470,143.036 175.473 C 142.653 175.475,142.406 175.358,142.440 175.193 C 142.473 175.037,142.286 174.870,142.024 174.823 C 141.632 174.752,141.611 174.780,141.905 174.984 C 142.190 175.181,142.131 175.232,141.607 175.234 C 141.244 175.236,140.979 175.119,141.012 174.970 C 141.045 174.823,140.923 174.648,140.741 174.582 C 140.538 174.509,140.474 174.566,140.576 174.731 C 140.678 174.895,140.575 174.991,140.312 174.976 C 139.538 174.934,138.781 174.648,138.813 174.411 C 138.831 174.283,138.715 174.135,138.556 174.082 C 138.390 174.027,138.338 174.101,138.433 174.255 C 138.530 174.411,138.444 174.524,138.228 174.524 C 138.024 174.524,137.884 174.403,137.917 174.256 C 137.949 174.109,137.827 173.934,137.645 173.868 C 137.443 173.794,137.379 173.852,137.481 174.017 C 137.577 174.173,137.491 174.286,137.276 174.286 C 137.072 174.286,136.932 174.165,136.964 174.018 C 136.997 173.871,136.875 173.696,136.693 173.630 C 136.490 173.556,136.427 173.614,136.529 173.779 C 136.727 174.099,136.260 174.104,135.595 173.788 C 135.168 173.585,135.177 173.573,135.689 173.672 C 136.856 173.899,135.755 173.379,133.301 172.544 C 123.527 169.220,112.678 161.427,107.024 153.670 C 106.762 153.311,106.414 152.881,106.250 152.716 C 106.086 152.550,105.952 152.346,105.952 152.262 C 105.952 152.178,105.818 151.960,105.655 151.777 C 104.948 150.989,104.762 150.720,104.762 150.486 C 104.762 150.350,104.667 150.238,104.552 150.238 C 104.436 150.238,104.273 150.051,104.189 149.821 C 104.105 149.592,103.873 149.137,103.674 148.810 C 103.475 148.482,103.052 147.786,102.733 147.262 C 102.414 146.738,101.750 145.533,101.258 144.583 C 100.321 142.776,99.726 142.218,100.365 143.745 C 101.180 145.696,105.121 152.143,105.499 152.143 C 105.617 152.143,105.714 152.285,105.714 152.459 C 105.714 153.811,116.892 164.968,118.274 164.994 C 118.438 164.997,118.571 165.095,118.571 165.210 C 118.571 165.468,121.471 167.381,121.862 167.381 C 122.016 167.381,122.143 167.481,122.143 167.603 C 122.143 167.725,122.384 167.900,122.679 167.992 C 122.973 168.084,123.269 168.244,123.336 168.346 C 123.402 168.449,123.612 168.569,123.802 168.612 C 123.993 168.655,124.350 168.869,124.597 169.087 C 124.844 169.305,126.134 169.966,127.464 170.556 C 131.537 172.364,131.578 172.383,130.952 172.231 C 124.026 170.543,111.748 161.283,105.832 153.284 C 102.344 148.568,97.808 139.765,98.606 139.260 C 98.899 139.074,98.725 138.948,98.274 139.019 C 98.176 139.035,98.095 138.940,98.095 138.810 C 98.095 138.679,98.195 138.571,98.318 138.571 C 98.440 138.571,98.292 137.848,97.988 136.964 C 97.685 136.080,97.317 135.384,97.171 135.417 C 97.024 135.449,96.905 135.369,96.905 135.238 C 96.905 135.107,97.018 135.000,97.157 135.000 C 97.296 135.000,97.342 134.891,97.260 134.758 C 97.177 134.625,97.010 134.578,96.888 134.653 C 96.766 134.728,96.665 134.650,96.663 134.478 C 96.662 134.307,96.591 133.909,96.507 133.594 C 96.392 133.163,96.430 133.068,96.660 133.210 C 96.866 133.337,96.927 133.291,96.846 133.069 C 96.780 132.887,96.606 132.765,96.458 132.798 C 96.311 132.830,96.190 132.690,96.190 132.486 C 96.190 132.271,96.303 132.185,96.459 132.281 C 96.624 132.383,96.682 132.319,96.608 132.116 C 96.542 131.935,96.381 131.808,96.251 131.835 C 96.032 131.880,95.471 129.695,95.480 128.829 C 95.483 128.498,95.513 128.496,95.731 128.810 C 95.934 129.103,95.963 129.082,95.892 128.690 C 95.844 128.429,95.691 128.237,95.551 128.264 C 95.272 128.319,94.760 124.862,94.766 122.960 C 94.768 122.077,94.831 121.874,95.016 122.143 C 95.220 122.436,95.248 122.415,95.177 122.024 C 95.130 121.762,94.946 121.580,94.770 121.620 C 94.396 121.704,94.548 115.398,95.001 112.024 C 98.501 85.947,117.379 66.581,143.259 62.518 C 146.534 62.004,153.542 61.674,161.250 61.670 C 165.514 61.668,167.619 61.585,167.619 61.418 C 167.619 61.281,167.795 61.201,168.011 61.240 C 168.227 61.278,168.449 61.149,168.505 60.952 C 168.596 60.635,168.580 60.635,168.355 60.952 C 167.960 61.511,168.025 60.853,168.529 59.167 L 168.957 57.738 173.923 57.738 L 178.888 57.738 179.350 59.405 C 179.962 61.611,180.088 61.743,181.386 61.549 C 185.726 60.898,191.182 54.558,189.733 51.851 C 189.565 51.537,189.596 51.429,189.853 51.429 C 190.043 51.429,190.253 51.538,190.319 51.673 C 190.386 51.807,190.413 51.780,190.379 51.613 C 190.346 51.446,189.314 50.917,188.087 50.437 C 184.460 49.018,184.762 49.665,184.762 43.305 C 184.762 36.892,185.212 37.667,180.644 36.218 C 170.321 32.941,156.859 31.357,147.381 32.302 M205.952 41.429 L 205.952 49.524 223.452 49.524 C 233.755 49.524,240.952 49.613,240.952 49.740 C 240.952 49.858,241.176 49.897,241.449 49.826 C 241.722 49.754,241.834 49.628,241.699 49.544 C 241.543 49.447,241.534 49.265,241.676 49.041 C 241.918 48.658,241.997 34.327,241.760 33.710 C 241.630 33.371,239.825 33.333,223.784 33.333 L 205.952 33.333 205.952 41.429 M290.047 35.854 C 289.911 36.497,289.396 39.235,288.904 41.938 L 288.008 46.852 285.254 47.363 C 277.165 48.865,275.942 49.117,276.075 49.250 C 276.155 49.330,278.866 49.886,282.099 50.485 L 287.976 51.574 288.955 56.799 C 289.493 59.673,290.016 62.452,290.116 62.976 C 290.367 64.281,290.451 63.975,291.685 57.262 C 292.239 54.250,292.785 51.724,292.900 51.649 C 293.015 51.573,295.650 51.049,298.757 50.485 C 301.863 49.920,304.492 49.381,304.598 49.286 C 304.704 49.191,303.312 48.836,301.503 48.496 C 299.694 48.157,296.980 47.649,295.471 47.367 L 292.727 46.856 291.683 41.106 C 290.491 34.537,290.392 34.221,290.047 35.854 M291.095 43.737 C 291.406 45.414,291.713 47.007,291.777 47.278 C 291.878 47.711,292.335 47.853,295.488 48.439 C 299.685 49.218,299.690 49.294,295.595 50.003 C 291.505 50.710,291.859 50.381,291.200 54.090 C 290.314 59.082,290.412 59.084,289.515 54.048 C 288.879 50.476,289.106 50.688,285.188 50.004 C 281.018 49.276,281.021 49.220,285.268 48.420 L 288.906 47.734 289.331 45.355 C 290.375 39.514,290.321 39.564,291.095 43.737 M332.550 42.024 C 332.473 42.286,331.964 44.911,331.420 47.857 C 330.875 50.804,330.413 53.225,330.393 53.238 C 330.373 53.251,327.839 53.722,324.762 54.283 C 318.168 55.486,318.082 55.528,321.114 56.069 C 325.587 56.868,330.244 57.784,330.345 57.885 C 330.401 57.941,330.884 60.341,331.419 63.219 C 332.574 69.436,332.612 69.611,332.749 69.473 C 332.808 69.414,333.332 66.819,333.913 63.706 C 334.495 60.593,335.029 57.987,335.101 57.915 C 335.234 57.782,345.779 55.740,346.417 55.723 C 347.639 55.691,345.574 55.172,340.714 54.290 C 337.637 53.731,335.098 53.257,335.073 53.237 C 335.047 53.217,334.585 50.793,334.046 47.850 C 333.507 44.908,332.981 42.286,332.878 42.024 L 332.689 41.548 332.550 42.024 M333.580 51.009 C 333.985 53.245,334.227 54.069,334.505 54.148 C 334.712 54.207,336.167 54.485,337.738 54.765 C 342.121 55.547,342.143 55.497,336.998 56.434 L 334.115 56.958 333.565 60.086 C 332.701 65.006,332.728 65.017,331.746 59.327 L 331.334 56.939 327.805 56.284 C 323.695 55.521,323.689 55.474,327.619 54.776 C 329.256 54.485,330.759 54.203,330.958 54.149 C 331.221 54.077,331.477 53.179,331.885 50.894 C 332.731 46.155,332.703 46.153,333.580 51.009 M240.179 49.926 C 239.949 49.986,239.762 50.124,239.762 50.233 C 239.762 50.342,239.976 50.376,240.238 50.307 C 240.500 50.239,240.714 50.088,240.714 49.972 C 240.714 49.857,240.688 49.774,240.655 49.790 C 240.622 49.805,240.408 49.866,240.179 49.926 M238.988 50.402 C 238.759 50.462,238.571 50.600,238.571 50.709 C 238.571 50.819,238.786 50.852,239.048 50.783 C 239.310 50.715,239.524 50.564,239.524 50.448 C 239.524 50.333,239.497 50.251,239.464 50.266 C 239.432 50.281,239.217 50.342,238.988 50.402 M237.798 50.878 C 237.568 50.938,237.381 51.077,237.381 51.186 C 237.381 51.295,237.595 51.328,237.857 51.259 C 238.119 51.191,238.333 51.040,238.333 50.925 C 238.333 50.809,238.307 50.727,238.274 50.742 C 238.241 50.757,238.027 50.819,237.798 50.878 M236.764 51.427 C 236.614 51.577,231.172 51.685,221.895 51.724 L 207.262 51.786 207.090 53.686 C 206.326 62.115,200.111 68.452,194.332 66.697 C 191.479 65.830,186.271 61.292,186.525 59.893 C 186.591 59.527,186.570 59.303,186.478 59.395 C 186.385 59.488,186.296 59.662,186.280 59.782 C 186.263 59.902,186.237 60.090,186.220 60.199 C 186.128 60.815,182.383 62.126,180.684 62.137 C 179.616 62.144,179.479 61.972,178.836 59.821 L 178.320 58.095 173.922 58.095 C 171.149 58.095,169.524 58.183,169.524 58.333 C 169.524 58.464,169.336 58.580,169.107 58.590 C 168.858 58.601,168.810 58.657,168.988 58.729 C 169.222 58.824,169.286 62.306,169.286 75.020 L 169.286 91.190 174.048 91.190 L 178.810 91.190 178.826 100.179 C 178.842 108.793,178.860 109.127,179.239 108.214 C 179.575 107.409,179.654 105.960,179.758 98.810 L 179.881 90.357 180.833 90.298 C 193.439 89.511,200.921 86.366,214.405 76.190 C 221.017 71.200,223.074 69.838,226.282 68.325 C 229.333 66.885,234.350 65.313,234.496 65.751 C 234.731 66.454,236.066 58.576,236.411 54.454 C 236.529 53.040,236.755 51.728,236.914 51.537 C 237.238 51.146,237.126 51.064,236.764 51.427 M188.865 56.300 C 188.504 57.042,188.429 57.412,188.616 57.527 C 188.779 57.628,188.817 57.585,188.713 57.418 C 188.620 57.267,188.663 57.143,188.810 57.143 C 188.956 57.143,189.010 57.036,188.929 56.905 C 188.848 56.774,188.901 56.667,189.048 56.667 C 189.194 56.667,189.248 56.560,189.167 56.429 C 189.086 56.298,189.120 56.190,189.244 56.190 C 189.367 56.190,189.524 55.976,189.593 55.714 C 189.813 54.871,189.396 55.207,188.865 56.300 M94.762 60.604 C 94.762 60.674,93.780 61.826,92.581 63.163 C 63.538 95.544,64.566 145.071,94.928 176.211 C 112.432 194.163,135.852 202.804,161.786 200.877 L 164.405 200.682 163.095 202.035 C 131.535 234.644,75.145 233.454,44.088 199.524 C -1.449 149.774,26.205 71.402,93.095 60.637 C 94.063 60.481,94.762 60.467,94.762 60.604 M167.976 61.905 C 167.884 62.054,165.490 62.144,161.593 62.146 C 140.870 62.157,130.725 64.707,119.367 72.763 L 117.900 73.803 118.353 74.995 C 120.802 81.440,120.533 85.424,116.984 95.235 C 108.891 117.602,110.432 132.075,122.273 144.935 C 131.268 154.705,140.651 157.854,160.774 157.856 L 167.857 157.857 167.857 143.738 C 167.857 134.675,167.942 129.517,168.095 129.333 C 168.268 129.126,168.255 129.113,168.048 129.286 C 167.446 129.787,149.771 129.587,148.078 129.061 C 143.758 127.716,141.482 124.441,141.215 119.187 L 141.071 116.351 139.405 115.652 C 126.378 110.194,130.247 95.492,145.855 91.142 C 147.633 90.646,148.299 90.612,157.798 90.532 L 167.857 90.448 167.857 76.343 C 167.857 65.690,167.927 62.168,168.143 61.952 C 168.300 61.795,168.360 61.667,168.276 61.667 C 168.192 61.667,168.057 61.774,167.976 61.905 M259.695 66.001 C 259.627 66.302,258.956 69.923,258.205 74.048 C 257.454 78.173,256.757 81.639,256.658 81.750 C 256.558 81.861,253.064 82.583,248.893 83.354 C 244.722 84.126,241.042 84.825,240.714 84.909 L 240.119 85.062 240.714 85.229 C 241.042 85.321,244.766 86.030,248.991 86.805 C 254.746 87.860,256.699 88.303,256.778 88.571 C 256.837 88.768,257.539 92.463,258.340 96.782 C 259.140 101.102,259.836 104.677,259.886 104.727 C 260.019 104.860,260.108 104.425,261.646 96.107 C 262.417 91.936,263.139 88.443,263.250 88.345 C 263.361 88.246,266.827 87.552,270.952 86.802 C 275.077 86.052,278.720 85.353,279.048 85.249 L 279.643 85.059 279.048 84.907 C 278.720 84.823,275.039 84.120,270.868 83.344 C 266.696 82.568,263.236 81.887,263.180 81.830 C 263.123 81.774,262.409 78.131,261.593 73.735 C 260.104 65.717,259.925 64.988,259.695 66.001 M260.970 78.127 C 261.459 80.763,261.974 82.991,262.113 83.077 C 262.252 83.162,264.378 83.593,266.837 84.032 C 272.976 85.130,273.033 85.014,265.714 86.329 C 263.685 86.694,261.994 87.012,261.957 87.035 C 261.920 87.059,261.516 89.102,261.058 91.575 C 260.096 96.773,259.896 97.435,259.661 96.190 C 259.575 95.732,259.158 93.486,258.734 91.200 L 257.963 87.043 256.541 86.765 C 255.759 86.613,253.512 86.190,251.548 85.827 C 247.327 85.047,247.298 85.076,253.425 83.942 C 255.898 83.484,257.941 83.080,257.964 83.043 C 257.987 83.006,258.182 82.012,258.397 80.833 C 259.619 74.132,259.832 73.086,259.950 73.204 C 260.021 73.275,260.480 75.491,260.970 78.127 M115.458 75.177 C 115.038 75.653,115.016 75.717,115.376 75.414 C 115.649 75.186,115.926 75.053,115.992 75.119 C 116.057 75.184,116.111 75.077,116.111 74.881 C 116.111 74.423,116.134 74.412,115.458 75.177 M111.459 78.898 C 109.153 81.209,108.370 82.134,108.605 82.270 C 108.783 82.373,108.845 82.365,108.742 82.252 C 108.541 82.032,114.268 76.152,114.527 76.312 C 114.613 76.364,114.683 76.252,114.683 76.061 C 114.683 75.619,115.087 75.263,111.459 78.898 M230.249 78.784 C 228.346 83.378,220.110 92.914,214.226 97.337 C 209.315 101.027,199.824 105.855,199.252 104.953 C 199.073 104.671,198.949 104.853,199.019 105.298 C 199.035 105.396,198.940 105.476,198.810 105.476 C 198.679 105.476,198.571 105.363,198.571 105.224 C 198.571 105.085,198.463 105.039,198.329 105.121 C 198.196 105.204,198.149 105.371,198.224 105.493 C 198.300 105.615,198.248 105.714,198.109 105.714 C 197.971 105.714,197.857 105.601,197.857 105.462 C 197.857 105.323,197.748 105.277,197.615 105.360 C 197.482 105.442,197.435 105.609,197.510 105.731 C 197.586 105.853,197.534 105.952,197.395 105.952 C 197.256 105.952,197.143 105.839,197.143 105.700 C 197.143 105.562,197.034 105.515,196.901 105.598 C 196.768 105.680,196.721 105.847,196.796 105.969 C 196.871 106.091,196.819 106.190,196.681 106.190 C 196.542 106.190,196.429 106.077,196.429 105.938 C 196.429 105.800,196.320 105.753,196.187 105.836 C 196.054 105.918,195.999 106.073,196.065 106.180 C 196.131 106.287,195.892 106.430,195.534 106.499 C 195.175 106.567,194.815 106.514,194.733 106.381 C 194.634 106.222,194.528 106.229,194.420 106.403 C 194.331 106.548,194.344 106.677,194.450 106.690 C 194.738 106.726,193.519 107.092,193.022 107.119 C 192.759 107.134,192.656 107.038,192.757 106.874 C 192.859 106.709,192.795 106.651,192.593 106.725 C 192.411 106.791,192.285 106.955,192.314 107.090 C 192.362 107.318,188.789 108.101,187.738 108.092 C 187.338 108.089,187.319 108.048,187.619 107.841 C 187.913 107.637,187.891 107.609,187.500 107.680 C 187.238 107.727,187.051 107.894,187.083 108.050 C 187.122 108.234,186.790 108.332,186.131 108.330 C 185.360 108.327,185.204 108.267,185.476 108.079 C 185.770 107.876,185.749 107.847,185.357 107.918 C 185.095 107.966,184.908 108.132,184.940 108.288 C 184.981 108.482,184.566 108.570,183.631 108.568 C 182.613 108.565,182.354 108.501,182.619 108.317 C 182.913 108.114,182.891 108.085,182.500 108.156 C 182.238 108.204,182.051 108.370,182.083 108.526 C 182.121 108.707,181.808 108.810,181.220 108.810 C 180.078 108.810,179.905 109.015,179.408 110.952 C 179.189 111.804,178.897 112.607,178.759 112.738 C 178.584 112.903,178.546 112.812,178.636 112.440 C 178.795 111.778,178.437 111.721,178.264 112.381 C 178.146 112.834,177.940 112.857,173.978 112.857 L 169.817 112.857 169.422 112.254 C 169.204 111.923,168.924 111.715,168.799 111.792 C 168.674 111.870,168.571 111.760,168.571 111.548 C 168.571 111.322,168.683 111.231,168.840 111.329 C 169.005 111.430,169.063 111.367,168.989 111.164 C 168.923 110.982,168.749 110.860,168.601 110.893 C 168.454 110.926,168.333 110.845,168.333 110.714 C 168.333 110.583,168.447 110.476,168.585 110.476 C 168.724 110.476,168.770 110.367,168.688 110.234 C 168.606 110.101,168.439 110.054,168.317 110.129 C 168.195 110.205,168.095 110.093,168.095 109.881 C 168.095 109.655,168.207 109.565,168.364 109.662 C 168.528 109.763,168.588 109.699,168.518 109.497 C 168.455 109.316,168.227 109.198,168.011 109.237 C 167.795 109.275,167.619 109.195,167.619 109.058 C 167.619 108.890,164.932 108.808,159.345 108.806 C 153.554 108.803,151.179 108.728,151.429 108.555 C 151.730 108.346,151.719 108.319,151.356 108.380 C 151.120 108.420,150.937 108.560,150.949 108.690 C 150.980 109.038,148.969 109.281,148.754 108.955 C 148.599 108.721,148.491 108.882,148.526 109.293 C 148.532 109.363,147.928 109.735,147.185 110.119 C 139.184 114.262,140.288 126.102,148.917 128.699 C 150.397 129.144,167.619 129.223,167.619 128.784 C 167.619 128.639,167.776 128.581,167.969 128.655 C 168.161 128.728,168.392 128.670,168.482 128.524 C 168.581 128.364,168.537 128.327,168.370 128.430 C 168.031 128.639,168.030 128.563,168.357 127.265 C 168.542 126.532,168.718 126.262,168.953 126.352 C 169.233 126.459,169.286 129.014,169.286 142.645 L 169.286 158.810 174.048 158.810 L 178.810 158.810 178.822 167.798 L 178.835 176.786 179.295 175.357 C 179.712 174.062,179.755 173.176,179.758 165.893 L 179.762 157.857 208.092 157.857 L 236.421 157.857 236.484 143.631 L 236.548 129.405 208.452 129.471 C 176.486 129.545,179.479 129.691,179.060 128.043 C 178.416 125.514,178.859 125.714,173.910 125.714 C 170.650 125.714,169.536 125.789,169.454 126.012 C 169.367 126.250,169.282 126.250,169.030 126.012 C 168.330 125.352,169.196 125.228,174.052 125.293 L 178.903 125.357 179.356 126.905 C 179.605 127.756,179.919 128.587,180.054 128.751 C 180.248 128.988,186.075 129.037,208.279 128.989 L 236.260 128.929 237.364 127.143 C 238.286 125.650,238.583 125.344,239.174 125.277 C 240.484 125.127,240.476 125.166,240.476 118.893 C 240.476 104.834,237.551 91.960,231.716 80.336 L 230.560 78.033 230.249 78.784 M227.081 82.941 C 222.052 90.498,212.847 98.540,204.940 102.284 C 203.782 102.833,203.776 103.215,204.933 102.732 C 206.093 102.247,211.796 98.841,212.487 98.221 C 212.782 97.955,213.317 97.568,213.674 97.361 C 216.150 95.924,221.036 91.157,224.496 86.802 C 226.273 84.566,228.747 80.952,228.502 80.952 C 228.449 80.952,227.809 81.847,227.081 82.941 M348.805 82.440 C 348.798 82.967,345.041 102.895,344.928 103.008 C 344.818 103.118,324.686 106.905,324.210 106.905 C 322.774 106.905,326.047 107.626,334.524 109.177 C 340.089 110.195,344.750 111.157,344.881 111.315 C 345.012 111.473,345.971 116.224,347.011 121.873 C 348.052 127.521,348.965 132.143,349.039 132.143 C 349.114 132.143,350.029 127.518,351.073 121.865 C 352.117 116.212,353.091 111.466,353.238 111.320 C 353.385 111.173,358.127 110.200,363.776 109.157 C 372.497 107.548,375.262 106.922,373.750 106.900 C 372.811 106.887,353.234 103.081,353.117 102.890 C 353.040 102.762,352.126 98.042,351.087 92.401 C 349.493 83.749,348.828 80.845,348.805 82.440 M107.643 82.951 C 107.226 83.394,107.177 83.562,107.423 83.704 C 107.596 83.804,107.657 83.796,107.557 83.687 C 107.458 83.577,107.611 83.239,107.896 82.934 C 108.182 82.630,108.363 82.381,108.297 82.381 C 108.232 82.381,107.937 82.638,107.643 82.951 M284.925 86.831 C 284.586 88.639,284.179 90.869,284.021 91.786 C 283.651 93.926,284.144 93.656,278.810 94.639 C 272.215 95.854,272.190 95.670,279.117 96.923 C 283.051 97.635,283.604 97.790,283.702 98.211 C 283.763 98.475,284.194 100.724,284.660 103.210 C 285.126 105.696,285.551 107.774,285.605 107.828 C 285.770 107.992,285.898 107.424,286.772 102.632 C 287.237 100.085,287.698 97.931,287.797 97.844 C 287.895 97.757,290.173 97.286,292.857 96.798 C 295.542 96.311,297.780 95.869,297.832 95.818 C 297.988 95.663,297.441 95.542,292.501 94.641 C 289.883 94.163,287.724 93.754,287.703 93.731 C 287.682 93.709,287.262 91.494,286.769 88.810 C 286.276 86.125,285.798 83.842,285.707 83.735 C 285.616 83.629,285.265 85.022,284.925 86.831 M286.355 91.475 C 286.981 94.901,286.547 94.437,289.668 95.015 C 293.764 95.774,293.758 95.824,289.481 96.546 C 287.273 96.919,286.924 97.042,286.826 97.476 C 286.764 97.751,286.524 99.048,286.293 100.357 C 285.719 103.603,285.620 103.583,284.969 100.077 L 284.402 97.024 281.357 96.452 C 277.775 95.778,277.787 95.707,281.607 95.010 C 283.807 94.608,284.524 94.389,284.524 94.119 C 284.524 93.339,285.556 88.334,285.690 88.468 C 285.768 88.546,286.068 89.899,286.355 91.475 M103.103 89.271 C 102.926 89.601,102.935 89.782,103.131 89.903 C 103.302 90.009,103.342 89.969,103.237 89.799 C 103.144 89.648,103.163 89.524,103.280 89.524 C 103.396 89.524,103.492 89.363,103.492 89.167 C 103.492 88.692,103.400 88.716,103.103 89.271 M102.389 90.462 C 102.212 90.791,102.220 90.972,102.417 91.094 C 102.588 91.199,102.628 91.160,102.523 90.989 C 102.429 90.838,102.448 90.714,102.565 90.714 C 102.682 90.714,102.778 90.554,102.778 90.357 C 102.778 89.882,102.686 89.907,102.389 90.462 M100.939 93.122 C 99.758 95.471,99.475 96.190,99.732 96.190 C 99.955 96.190,100.865 94.273,100.774 93.993 C 100.741 93.892,100.828 93.810,100.966 93.810 C 101.105 93.810,101.152 93.702,101.071 93.571 C 100.990 93.440,101.044 93.333,101.190 93.333 C 101.337 93.333,101.390 93.226,101.310 93.095 C 101.229 92.964,101.282 92.857,101.429 92.857 C 101.575 92.857,101.629 92.750,101.548 92.619 C 101.467 92.488,101.520 92.381,101.667 92.381 C 101.813 92.381,101.867 92.274,101.786 92.143 C 101.705 92.012,101.734 91.905,101.851 91.905 C 101.968 91.905,102.063 91.744,102.063 91.548 C 102.063 90.953,101.949 91.114,100.939 93.122 M350.357 98.333 C 350.969 101.673,351.540 104.473,351.627 104.556 C 351.714 104.638,354.596 105.224,358.032 105.857 C 361.467 106.490,364.199 107.077,364.103 107.162 C 364.007 107.247,361.133 107.828,357.716 108.454 L 351.504 109.592 350.367 115.808 C 349.741 119.227,349.160 122.100,349.076 122.194 C 348.991 122.287,348.399 119.501,347.758 116.003 C 347.118 112.505,346.584 109.626,346.571 109.605 C 346.558 109.585,343.762 109.061,340.357 108.441 C 336.952 107.822,334.085 107.243,333.986 107.155 C 333.886 107.067,336.672 106.466,340.176 105.819 L 346.548 104.643 347.730 98.278 C 348.381 94.777,348.988 91.992,349.079 92.088 C 349.171 92.183,349.746 94.994,350.357 98.333 M99.217 96.905 C 99.148 97.167,99.177 97.381,99.280 97.381 C 99.384 97.381,99.524 97.167,99.593 96.905 C 99.661 96.643,99.633 96.429,99.529 96.429 C 99.426 96.429,99.285 96.643,99.217 96.905 M98.741 98.095 C 98.672 98.357,98.701 98.571,98.804 98.571 C 98.907 98.571,99.048 98.357,99.117 98.095 C 99.185 97.833,99.157 97.619,99.053 97.619 C 98.950 97.619,98.809 97.833,98.741 98.095 M98.264 99.286 C 98.196 99.548,98.224 99.762,98.328 99.762 C 98.431 99.762,98.572 99.548,98.640 99.286 C 98.709 99.024,98.680 98.810,98.577 98.810 C 98.473 98.810,98.333 99.024,98.264 99.286 M202.798 103.264 C 202.307 103.461,201.905 103.719,201.905 103.838 C 201.905 104.029,203.490 103.494,203.777 103.207 C 204.071 102.913,203.602 102.941,202.798 103.264 M201.131 103.974 C 200.902 104.034,200.714 104.172,200.714 104.281 C 200.714 104.390,200.929 104.423,201.190 104.355 C 201.452 104.286,201.667 104.136,201.667 104.020 C 201.667 103.904,201.640 103.822,201.607 103.837 C 201.574 103.852,201.360 103.914,201.131 103.974 M199.940 104.450 C 199.711 104.510,199.524 104.648,199.524 104.757 C 199.524 104.866,199.738 104.899,200.000 104.831 C 200.262 104.762,200.476 104.612,200.476 104.496 C 200.476 104.380,200.449 104.298,200.417 104.313 C 200.384 104.329,200.170 104.390,199.940 104.450 M146.397 109.825 C 144.914 110.593,143.604 111.960,142.696 113.690 C 142.222 114.592,142.417 114.415,143.266 113.173 C 144.117 111.926,145.808 110.481,147.089 109.904 C 147.643 109.655,148.095 109.361,148.095 109.250 C 148.095 108.955,148.042 108.974,146.397 109.825 M238.463 125.936 C 238.387 126.058,238.434 126.225,238.568 126.307 C 238.728 126.406,238.810 131.894,238.810 142.514 L 238.810 158.571 245.595 158.571 L 252.381 158.571 252.381 157.857 L 252.381 157.143 273.214 157.143 L 294.048 157.143 294.048 145.001 L 294.048 132.860 273.155 132.799 L 252.262 132.738 252.204 129.762 C 252.172 128.125,252.089 126.545,252.021 126.250 L 251.896 125.714 245.605 125.714 C 241.668 125.714,239.259 125.803,239.167 125.952 C 239.086 126.083,238.912 126.190,238.781 126.190 C 238.650 126.190,238.610 126.083,238.690 125.952 C 238.771 125.821,238.784 125.714,238.719 125.714 C 238.653 125.714,238.538 125.814,238.463 125.936 M296.349 133.016 C 296.262 133.103,296.190 138.567,296.190 145.159 L 296.190 157.143 298.333 157.143 L 300.476 157.143 300.476 145.145 C 300.476 134.423,300.436 133.131,300.100 133.002 C 299.589 132.806,296.548 132.817,296.349 133.016 M309.689 133.009 C 309.598 133.100,309.524 138.567,309.524 145.159 L 309.524 157.143 312.740 157.143 L 315.957 157.143 315.895 145.060 L 315.833 132.976 312.844 132.910 C 311.200 132.873,309.780 132.918,309.689 133.009 M317.075 133.005 C 316.981 133.098,316.905 138.567,316.905 145.159 L 316.905 157.143 317.978 157.143 L 319.052 157.143 318.990 145.060 L 318.929 132.976 318.087 132.905 C 317.624 132.866,317.168 132.911,317.075 133.005 M327.143 144.961 L 327.143 157.093 328.097 157.184 L 329.052 157.275 328.990 145.126 L 328.929 132.976 328.036 132.902 L 327.143 132.828 327.143 144.961 M329.683 133.016 C 329.595 133.103,329.524 138.567,329.524 145.159 L 329.524 157.143 332.024 157.143 L 334.524 157.143 334.524 145.000 L 334.524 132.857 332.183 132.857 C 330.895 132.857,329.770 132.929,329.683 133.016 M342.381 144.991 L 342.381 157.143 344.526 157.143 L 346.671 157.143 346.609 145.060 L 346.548 132.976 344.464 132.907 L 342.381 132.839 342.381 144.991 M352.778 133.016 C 352.690 133.103,352.619 138.567,352.619 145.159 L 352.619 157.143 354.048 157.143 L 355.476 157.143 355.476 145.000 L 355.476 132.857 354.206 132.857 C 353.508 132.857,352.865 132.929,352.778 133.016 M359.683 133.016 C 359.595 133.103,359.524 138.567,359.524 145.159 L 359.524 157.143 361.667 157.143 L 363.810 157.143 363.810 145.000 L 363.810 132.857 361.825 132.857 C 360.734 132.857,359.770 132.929,359.683 133.016 M367.310 133.008 C 367.218 133.099,367.143 138.567,367.143 145.159 L 367.143 157.143 367.740 157.143 L 368.338 157.143 368.276 145.063 C 368.212 132.606,368.175 132.142,367.310 133.008 M371.111 133.016 C 371.024 133.103,370.952 138.567,370.952 145.159 L 370.952 157.143 372.381 157.143 L 373.810 157.143 373.810 145.000 L 373.810 132.857 372.540 132.857 C 371.841 132.857,371.198 132.929,371.111 133.016 M98.741 140.000 C 98.809 140.262,98.950 140.476,99.053 140.476 C 99.157 140.476,99.185 140.262,99.117 140.000 C 99.048 139.738,98.907 139.524,98.804 139.524 C 98.701 139.524,98.672 139.738,98.741 140.000 M99.409 141.595 C 99.807 142.547,99.948 142.753,100.095 142.599 C 100.253 142.434,99.489 140.714,99.257 140.714 C 99.138 140.714,99.207 141.111,99.409 141.595 M252.225 172.986 C 252.147 173.189,252.151 173.421,252.232 173.502 C 252.314 173.584,252.381 173.480,252.381 173.271 C 252.381 173.063,252.568 172.843,252.798 172.783 C 253.188 172.681,253.188 172.673,252.790 172.647 C 252.557 172.631,252.303 172.784,252.225 172.986 M236.121 176.074 C 236.403 176.271,236.958 177.000,237.355 177.692 C 238.179 179.132,238.991 180.136,239.180 179.947 C 239.250 179.877,239.163 179.672,238.986 179.493 C 238.809 179.313,238.588 179.006,238.496 178.810 C 238.404 178.613,238.116 178.131,237.857 177.738 C 237.598 177.345,237.311 176.863,237.220 176.667 C 236.996 176.186,236.389 175.731,235.959 175.722 C 235.726 175.717,235.780 175.835,236.121 176.074 M251.924 179.702 C 251.937 179.993,251.981 180.021,252.071 179.794 C 252.180 179.520,252.233 179.520,252.406 179.794 C 252.567 180.048,252.613 180.028,252.615 179.702 C 252.617 179.473,252.458 179.286,252.262 179.286 C 252.065 179.286,251.913 179.473,251.924 179.702 " stroke="none" fill="#3c1f1f" fill-rule="evenodd"></path><path id="path2" d="M289.683 43.699 C 289.333 45.537,289.048 47.205,289.048 47.406 C 289.048 47.689,288.220 47.923,285.357 48.449 C 283.327 48.821,281.714 49.174,281.773 49.233 C 281.832 49.292,283.440 49.633,285.347 49.990 C 289.477 50.765,288.849 50.120,289.644 54.398 C 290.394 58.433,290.396 58.432,291.211 53.868 C 291.617 51.594,291.875 50.682,292.137 50.606 C 292.337 50.547,293.839 50.265,295.476 49.980 C 297.113 49.695,298.595 49.386,298.770 49.293 C 299.043 49.149,295.960 48.471,292.728 47.963 L 291.766 47.812 291.203 44.680 C 290.347 39.914,290.396 39.945,289.683 43.699 M332.412 48.374 C 332.275 49.072,331.968 50.655,331.729 51.893 L 331.295 54.143 328.045 54.750 C 324.037 55.499,323.978 55.556,326.718 56.045 C 327.934 56.262,329.474 56.548,330.141 56.681 L 331.353 56.923 331.903 59.949 C 332.777 64.765,332.679 64.772,333.580 59.832 L 334.110 56.926 335.329 56.683 C 335.999 56.549,337.537 56.263,338.746 56.047 C 341.522 55.552,341.427 55.442,337.646 54.767 C 333.763 54.073,334.154 54.461,333.438 50.586 C 332.721 46.705,332.734 46.732,332.412 48.374 M90.779 61.068 C 35.592 70.811,5.589 130.604,30.852 180.496 C 55.878 229.920,121.356 241.161,162.024 203.014 C 164.543 200.651,164.542 200.641,161.645 200.946 C 114.072 205.957,71.588 167.167,71.553 118.690 C 71.538 97.862,78.744 78.406,91.869 63.838 C 95.383 59.938,95.500 60.235,90.779 61.068 M259.213 76.581 C 258.873 78.396,258.464 80.603,258.304 81.485 C 258.109 82.565,257.891 83.124,257.638 83.196 C 257.431 83.256,255.440 83.634,253.214 84.037 C 248.501 84.891,248.009 84.994,248.127 85.107 C 248.175 85.153,250.357 85.585,252.976 86.067 C 255.595 86.548,257.812 87.014,257.901 87.102 C 257.991 87.190,258.465 89.431,258.954 92.082 C 259.444 94.733,259.893 96.853,259.952 96.794 C 260.012 96.734,260.459 94.537,260.945 91.912 C 261.432 89.286,261.873 87.099,261.927 87.051 C 261.980 87.002,264.166 86.566,266.784 86.082 C 269.403 85.597,271.580 85.166,271.624 85.122 C 271.762 84.984,270.924 84.799,266.786 84.054 C 261.247 83.057,261.912 83.701,260.967 78.422 C 259.936 72.669,259.945 72.679,259.213 76.581 M284.998 91.509 L 284.449 94.500 283.355 94.734 C 282.754 94.862,281.512 95.094,280.595 95.249 C 278.104 95.669,278.240 95.848,281.496 96.438 L 284.464 96.976 285.015 100.031 C 285.317 101.711,285.613 103.038,285.672 102.979 C 285.731 102.920,286.028 101.569,286.333 99.977 C 286.995 96.519,286.466 97.048,289.881 96.429 C 293.733 95.730,293.741 95.780,289.661 95.021 C 286.633 94.457,286.849 94.679,286.313 91.587 C 285.718 88.151,285.615 88.145,284.998 91.509 M347.757 98.410 L 346.605 104.672 340.323 105.833 C 336.868 106.472,334.123 107.066,334.223 107.154 C 334.323 107.242,337.133 107.816,340.466 108.429 C 343.800 109.042,346.551 109.567,346.579 109.595 C 346.607 109.623,347.123 112.323,347.727 115.596 C 348.330 118.870,348.887 121.708,348.964 121.905 C 349.041 122.101,349.637 119.423,350.288 115.952 C 350.939 112.482,351.493 109.621,351.520 109.593 C 351.546 109.566,354.295 109.042,357.629 108.429 C 360.963 107.816,363.774 107.240,363.876 107.150 C 363.977 107.061,361.245 106.470,357.804 105.837 C 354.363 105.205,351.527 104.675,351.503 104.660 C 351.478 104.645,350.955 101.902,350.342 98.566 C 349.728 95.230,349.155 92.421,349.068 92.324 C 348.981 92.227,348.391 94.965,347.757 98.410 " stroke="none" fill="#bbbbc3" fill-rule="evenodd"></path><path id="path3" d="M189.524 41.429 L 189.524 49.524 197.738 49.524 L 205.952 49.524 205.952 41.429 L 205.952 33.333 197.738 33.333 L 189.524 33.333 189.524 41.429 M193.810 52.271 C 193.810 53.883,191.996 55.813,190.211 56.102 C 189.526 56.213,189.269 56.410,188.959 57.062 C 188.743 57.513,188.086 58.396,187.498 59.025 C 186.123 60.495,186.053 60.278,188.751 62.896 C 191.323 65.391,192.533 66.195,194.616 66.793 C 200.192 68.393,206.303 61.949,207.098 53.631 L 207.286 51.667 200.548 51.667 L 193.810 51.667 193.810 52.271 M169.101 59.167 C 168.978 60.112,169.047 83.684,169.203 93.750 L 169.362 104.048 174.086 104.048 L 178.810 104.048 178.810 97.619 L 178.810 91.190 174.049 91.190 L 169.289 91.190 169.226 74.940 C 169.192 66.003,169.135 58.905,169.101 59.167 M231.453 66.331 C 225.868 68.047,222.987 69.713,214.405 76.190 C 200.921 86.366,193.439 89.511,180.833 90.298 L 179.881 90.357 179.817 95.774 L 179.753 101.190 180.531 101.189 C 189.795 101.175,202.039 98.344,214.918 93.237 C 217.427 92.242,219.581 91.429,219.705 91.429 C 220.871 91.429,227.867 81.865,230.416 76.786 C 232.747 72.141,235.077 65.442,234.345 65.487 C 234.247 65.493,232.946 65.873,231.453 66.331 M115.450 75.688 C 108.951 81.111,100.956 91.774,100.584 95.514 C 100.528 96.071,100.269 98.138,100.008 100.108 C 97.459 119.334,98.264 128.772,103.342 139.167 C 110.163 153.131,123.808 163.684,139.524 167.148 C 144.588 168.265,146.104 168.381,157.202 168.504 L 167.857 168.623 167.857 163.240 L 167.857 157.857 160.774 157.856 C 140.651 157.854,131.268 154.705,122.273 144.935 C 110.432 132.075,108.891 117.602,116.984 95.235 C 119.431 88.468,119.834 86.768,119.860 83.095 C 119.881 80.055,119.773 79.414,118.647 75.895 C 117.886 73.514,118.042 73.524,115.450 75.688 M146.905 90.943 C 136.609 93.145,129.511 101.610,131.937 108.794 C 133.021 112.005,135.693 114.204,141.131 116.361 C 141.295 116.426,141.429 116.322,141.429 116.129 C 141.429 115.604,143.022 112.521,143.532 112.060 C 143.943 111.687,143.951 111.567,143.642 110.412 C 142.733 107.022,144.547 103.697,148.253 101.960 L 149.643 101.310 158.750 101.235 L 167.857 101.160 167.857 95.818 L 167.857 90.476 158.393 90.493 C 150.188 90.507,148.659 90.567,146.905 90.943 M179.226 108.116 C 178.609 110.086,178.681 111.254,179.307 109.434 C 179.571 108.665,179.755 107.754,179.715 107.411 C 179.657 106.910,179.560 107.049,179.226 108.116 M169.014 126.726 C 168.967 126.890,168.983 134.149,169.050 142.857 L 169.172 158.690 169.229 142.560 C 169.260 133.687,169.244 126.429,169.192 126.429 C 169.141 126.429,169.060 126.563,169.014 126.726 M237.872 127.791 C 237.422 128.548,236.911 129.274,236.737 129.405 C 236.485 129.594,236.433 130.850,236.484 135.522 L 236.548 141.402 237.687 140.403 L 238.827 139.405 238.759 132.910 L 238.690 126.415 237.872 127.791 M252.381 157.857 L 252.381 158.571 245.595 158.571 L 238.810 158.571 238.810 165.000 L 238.810 171.429 245.595 171.429 L 252.381 171.429 252.381 168.929 L 252.381 166.429 273.214 166.429 L 294.048 166.429 294.048 161.786 L 294.048 157.143 273.214 157.143 L 252.381 157.143 252.381 157.857 M296.190 161.786 L 296.190 166.429 297.957 166.429 C 298.928 166.429,299.892 166.494,300.100 166.573 C 300.435 166.702,300.476 166.198,300.476 161.930 L 300.476 157.143 298.333 157.143 L 296.190 157.143 296.190 161.786 M309.524 161.773 L 309.524 166.403 312.738 166.475 L 315.953 166.548 315.953 161.845 L 315.952 157.143 312.738 157.143 L 309.524 157.143 309.524 161.773 M316.905 161.762 L 316.905 166.381 317.976 166.466 L 319.048 166.551 319.048 161.847 L 319.048 157.143 317.976 157.143 L 316.905 157.143 316.905 161.762 M327.143 161.771 L 327.143 166.429 327.719 166.429 C 328.035 166.429,328.466 166.494,328.676 166.575 C 329.020 166.707,329.051 166.250,328.993 161.992 L 328.929 157.262 328.036 157.188 L 327.143 157.114 327.143 161.771 M329.524 161.770 L 329.524 166.398 332.024 166.473 L 334.525 166.548 334.524 161.845 L 334.524 157.143 332.024 157.143 L 329.524 157.143 329.524 161.770 M342.381 161.769 L 342.381 166.395 344.524 166.471 L 346.668 166.548 346.667 161.845 L 346.667 157.143 344.524 157.143 L 342.381 157.143 342.381 161.769 M352.619 161.765 L 352.619 166.386 354.048 166.467 L 355.477 166.548 355.477 161.845 L 355.476 157.143 354.048 157.143 L 352.619 157.143 352.619 161.765 M359.524 161.769 L 359.524 166.395 361.667 166.471 L 363.811 166.548 363.810 161.845 L 363.810 157.143 361.667 157.143 L 359.524 157.143 359.524 161.769 M367.143 161.758 L 367.143 166.373 367.738 166.487 L 368.333 166.601 368.333 161.872 L 368.333 157.143 367.738 157.143 L 367.143 157.143 367.143 161.758 M370.952 161.765 L 370.952 166.386 372.381 166.467 L 373.810 166.548 373.810 161.845 L 373.810 157.143 372.381 157.143 L 370.952 157.143 370.952 161.765 M179.762 163.214 L 179.762 168.571 208.095 168.571 L 236.429 168.571 236.429 163.214 L 236.429 157.857 208.095 157.857 L 179.762 157.857 179.762 163.214 M169.286 165.119 L 169.286 171.429 174.048 171.429 L 178.810 171.429 178.810 165.119 L 178.810 158.810 174.048 158.810 L 169.286 158.810 169.286 165.119 M179.226 175.611 C 178.644 177.628,178.716 178.591,179.316 176.817 C 179.576 176.049,179.755 175.138,179.716 174.794 C 179.660 174.313,179.546 174.503,179.226 175.611 " stroke="none" fill="#752124" fill-rule="evenodd"></path><path id="path4" d="M184.832 32.964 C 184.496 33.346,184.695 48.740,185.038 48.952 C 185.148 49.020,185.238 45.507,185.238 41.145 L 185.238 33.214 213.380 33.276 C 235.481 33.324,241.562 33.401,241.710 33.633 C 241.977 34.054,241.945 48.615,241.676 49.041 C 241.529 49.273,241.551 49.454,241.739 49.573 C 241.993 49.735,241.633 49.821,241.039 49.742 C 240.955 49.730,240.821 49.827,240.741 49.956 C 240.661 50.085,240.381 50.228,240.119 50.274 C 239.857 50.320,239.589 50.427,239.524 50.512 C 239.458 50.597,239.190 50.704,238.929 50.750 C 238.667 50.796,238.394 50.911,238.323 51.006 C 238.252 51.101,237.956 51.215,237.665 51.259 C 236.778 51.395,236.637 51.751,236.411 54.435 C 235.976 59.581,234.778 65.953,233.600 69.380 C 233.200 70.546,232.939 71.607,233.021 71.739 C 233.105 71.875,233.050 71.905,232.894 71.808 C 232.639 71.651,232.525 71.980,232.555 72.795 C 232.561 72.957,232.470 73.031,232.354 72.960 C 232.160 72.840,232.052 73.244,232.078 73.986 C 232.084 74.148,232.015 74.235,231.925 74.179 C 231.673 74.023,229.252 79.039,229.436 79.336 C 229.530 79.489,229.488 79.530,229.334 79.435 C 229.190 79.346,228.959 79.483,228.821 79.740 C 228.496 80.347,228.505 80.546,228.846 80.334 C 229.018 80.228,229.057 80.269,228.949 80.443 C 228.854 80.597,228.691 80.669,228.587 80.605 C 228.483 80.541,227.694 81.545,226.834 82.838 C 225.183 85.317,222.749 88.455,221.103 90.226 C 220.562 90.809,220.307 91.144,220.536 90.971 C 221.599 90.167,220.777 91.297,219.226 92.769 C 215.078 96.708,206.151 102.782,204.307 102.921 C 204.033 102.942,203.810 103.030,203.810 103.117 C 203.810 103.280,202.778 103.741,202.143 103.861 C 201.946 103.898,201.732 103.998,201.667 104.083 C 201.601 104.168,201.333 104.276,201.071 104.321 C 200.810 104.367,200.532 104.490,200.455 104.595 C 200.378 104.700,200.083 104.803,199.800 104.824 C 199.517 104.846,199.286 104.955,199.286 105.067 C 199.286 105.349,199.915 105.130,203.283 103.679 C 221.518 95.820,234.534 77.974,236.791 57.738 C 236.996 55.905,237.239 53.822,237.332 53.110 L 237.500 51.815 239.702 50.925 C 240.913 50.435,242.065 49.874,242.262 49.677 C 242.782 49.156,242.799 33.479,242.279 32.959 C 241.779 32.459,185.271 32.464,184.832 32.964 M189.733 51.851 C 191.182 54.558,185.726 60.898,181.386 61.549 C 180.088 61.743,179.962 61.611,179.350 59.405 L 178.888 57.738 173.917 57.738 L 168.946 57.738 168.472 59.405 C 167.785 61.825,168.298 61.666,161.148 61.670 C 153.534 61.674,146.520 62.007,143.259 62.518 C 117.379 66.581,98.501 85.947,95.001 112.024 C 94.577 115.178,94.393 121.776,94.734 121.565 C 94.930 121.444,95.024 120.543,95.028 118.729 C 95.038 114.308,95.329 111.218,96.096 107.381 C 96.162 107.054,96.258 106.571,96.309 106.310 C 96.361 106.048,96.469 105.565,96.549 105.238 C 96.629 104.911,96.734 104.482,96.781 104.286 C 96.829 104.089,96.885 103.929,96.905 103.929 C 96.925 103.929,96.987 103.741,97.042 103.512 C 97.097 103.283,97.188 102.908,97.244 102.679 C 97.299 102.449,97.366 102.235,97.392 102.202 C 97.419 102.170,97.467 102.036,97.500 101.905 C 97.533 101.774,97.586 101.613,97.619 101.548 C 97.652 101.482,97.705 101.321,97.738 101.190 C 97.771 101.060,97.824 100.899,97.857 100.833 C 97.890 100.768,97.943 100.607,97.976 100.476 C 98.009 100.345,98.057 100.211,98.083 100.179 C 98.109 100.146,98.179 99.856,98.238 99.534 C 98.297 99.212,98.423 98.891,98.518 98.820 C 98.613 98.749,98.728 98.476,98.774 98.214 C 98.820 97.952,98.927 97.685,99.012 97.619 C 99.097 97.554,99.204 97.286,99.250 97.024 C 99.296 96.762,99.403 96.494,99.488 96.429 C 99.573 96.363,99.672 96.149,99.708 95.952 C 99.847 95.193,100.553 93.829,100.745 93.947 C 100.856 94.016,100.876 93.888,100.790 93.664 C 100.684 93.388,100.723 93.311,100.909 93.426 C 101.095 93.541,101.134 93.463,101.028 93.188 C 100.923 92.912,100.961 92.835,101.147 92.949 C 101.333 93.064,101.372 92.987,101.266 92.711 C 101.161 92.436,101.199 92.358,101.385 92.473 C 101.571 92.588,101.610 92.511,101.504 92.235 C 101.399 91.960,101.438 91.882,101.623 91.997 C 101.800 92.106,101.851 92.043,101.767 91.822 C 101.694 91.632,101.765 91.396,101.925 91.297 C 102.111 91.182,102.155 91.216,102.047 91.392 C 101.953 91.543,101.990 91.667,102.129 91.667 C 102.365 91.667,102.482 91.193,102.403 90.554 C 102.384 90.400,102.495 90.196,102.650 90.100 C 102.826 89.991,102.867 90.029,102.761 90.201 C 102.667 90.352,102.704 90.476,102.843 90.476 C 103.079 90.476,103.196 90.003,103.117 89.363 C 103.098 89.209,103.209 89.005,103.364 88.910 C 103.540 88.801,103.582 88.838,103.475 89.011 C 103.382 89.162,103.431 89.286,103.585 89.286 C 103.748 89.286,103.813 89.086,103.741 88.810 C 103.672 88.548,103.730 88.264,103.869 88.178 C 104.017 88.086,104.051 88.135,103.951 88.297 C 103.858 88.448,103.907 88.571,104.061 88.571 C 104.224 88.571,104.289 88.372,104.217 88.095 C 104.148 87.834,104.206 87.549,104.345 87.463 C 104.493 87.372,104.527 87.421,104.427 87.582 C 104.334 87.733,104.384 87.857,104.538 87.857 C 104.700 87.857,104.765 87.658,104.693 87.381 C 104.625 87.119,104.682 86.835,104.821 86.749 C 104.970 86.657,105.004 86.706,104.904 86.868 C 104.810 87.019,104.860 87.143,105.014 87.143 C 105.176 87.143,105.241 86.943,105.169 86.667 C 105.101 86.405,105.158 86.121,105.297 86.035 C 105.446 85.943,105.480 85.992,105.380 86.154 C 105.286 86.305,105.336 86.429,105.490 86.429 C 105.651 86.429,105.718 86.230,105.648 85.961 C 105.576 85.689,105.689 85.366,105.917 85.187 C 106.267 84.914,106.274 84.926,105.983 85.298 C 105.803 85.527,105.765 85.714,105.898 85.714 C 106.182 85.714,106.481 85.040,106.316 84.772 C 106.253 84.671,106.440 84.386,106.732 84.139 L 107.262 83.690 106.808 84.226 C 106.559 84.521,106.453 84.762,106.572 84.762 C 106.873 84.762,107.425 83.836,107.273 83.589 C 107.204 83.478,107.334 83.241,107.562 83.063 C 107.937 82.769,107.945 82.778,107.649 83.155 C 107.470 83.384,107.416 83.568,107.530 83.564 C 107.845 83.553,108.615 82.406,108.468 82.168 C 108.397 82.053,108.525 81.813,108.753 81.634 C 109.127 81.340,109.136 81.349,108.840 81.726 C 108.053 82.729,108.919 81.962,111.216 79.620 C 117.139 73.583,124.341 68.931,132.500 65.875 C 140.132 63.016,146.861 62.154,161.593 62.146 C 167.868 62.143,168.063 62.118,168.258 61.310 C 168.290 61.179,168.365 60.857,168.425 60.595 C 168.486 60.333,168.551 60.119,168.571 60.119 C 168.623 60.119,168.833 59.223,168.863 58.869 C 168.877 58.705,169.032 58.571,169.206 58.571 C 169.381 58.571,169.524 58.464,169.524 58.333 C 169.524 58.183,171.149 58.095,173.922 58.095 L 178.320 58.095 178.836 59.821 C 179.479 61.972,179.616 62.144,180.684 62.137 C 182.383 62.126,186.128 60.815,186.220 60.199 C 186.237 60.090,186.263 59.902,186.280 59.782 C 186.296 59.662,186.407 59.474,186.526 59.365 C 186.652 59.250,186.671 59.291,186.572 59.464 C 186.279 59.973,186.794 59.791,187.364 59.184 C 187.663 58.867,187.843 58.504,187.766 58.378 C 187.688 58.252,187.811 58.003,188.038 57.825 C 188.413 57.531,188.421 57.540,188.126 57.917 C 187.934 58.161,187.903 58.333,188.050 58.333 C 188.336 58.333,188.696 57.424,188.602 56.940 C 188.568 56.764,188.653 56.689,188.791 56.774 C 188.949 56.872,188.984 56.778,188.885 56.521 C 188.780 56.246,188.819 56.168,189.004 56.283 C 189.179 56.391,189.233 56.329,189.150 56.114 C 189.079 55.928,189.191 55.605,189.400 55.396 C 189.608 55.188,189.775 54.960,189.770 54.889 C 189.766 54.819,189.770 54.735,189.780 54.702 C 190.237 53.210,190.298 51.429,189.892 51.429 C 189.597 51.429,189.560 51.527,189.733 51.851 M94.397 56.012 L 92.976 57.500 94.464 56.079 C 95.847 54.759,96.061 54.524,95.885 54.524 C 95.849 54.524,95.179 55.193,94.397 56.012 M112.024 78.571 C 110.456 80.143,109.121 81.429,109.055 81.429 C 108.990 81.429,110.218 80.143,111.786 78.571 C 113.353 77.000,114.689 75.714,114.754 75.714 C 114.820 75.714,113.591 77.000,112.024 78.571 M43.566 81.845 L 41.548 83.929 43.631 81.910 C 45.566 80.035,45.823 79.762,45.650 79.762 C 45.614 79.762,44.676 80.699,43.566 81.845 M228.424 81.250 C 227.066 83.557,222.851 89.054,221.532 90.238 C 221.167 90.565,221.559 90.030,222.403 89.048 C 224.353 86.777,225.815 84.860,227.260 82.679 C 227.889 81.729,228.447 80.952,228.501 80.952 C 228.555 80.952,228.521 81.086,228.424 81.250 M195.476 106.190 C 195.292 106.304,195.056 106.344,194.952 106.280 C 194.847 106.215,194.762 106.278,194.762 106.419 C 194.762 106.634,195.854 106.540,196.147 106.300 C 196.371 106.116,195.758 106.016,195.476 106.190 M193.820 106.660 C 193.641 106.771,193.363 106.810,193.200 106.747 C 193.038 106.685,192.835 106.749,192.748 106.889 C 192.574 107.171,193.119 107.188,194.045 106.930 C 194.371 106.840,194.527 106.697,194.391 106.613 C 194.255 106.529,193.998 106.550,193.820 106.660 M191.840 107.049 C 191.768 107.121,191.458 107.219,191.152 107.266 C 190.846 107.313,190.220 107.417,189.762 107.497 C 189.304 107.578,188.637 107.671,188.280 107.704 C 187.924 107.737,187.549 107.852,187.447 107.960 C 187.227 108.192,189.346 107.955,191.190 107.542 C 191.911 107.380,192.381 107.174,192.236 107.083 C 192.090 106.992,191.912 106.977,191.840 107.049 M185.476 108.095 C 185.215 108.264,185.395 108.327,186.145 108.330 C 186.769 108.332,187.113 108.240,187.024 108.095 C 186.837 107.793,185.944 107.793,185.476 108.095 M182.619 108.333 C 182.366 108.497,182.664 108.565,183.645 108.568 C 184.507 108.570,184.973 108.482,184.881 108.333 C 184.693 108.030,183.089 108.030,182.619 108.333 M151.429 108.571 C 151.194 108.723,153.908 108.803,159.325 108.806 C 165.709 108.809,167.604 108.877,167.688 109.107 C 167.774 109.341,167.864 109.342,168.104 109.116 C 168.778 108.481,167.132 108.333,159.449 108.337 C 154.913 108.339,151.640 108.435,151.429 108.571 M180.085 108.498 C 179.643 108.585,178.571 111.613,178.571 112.777 C 178.571 113.356,179.070 112.268,179.408 110.952 C 179.905 109.011,180.077 108.810,181.234 108.810 C 181.798 108.810,182.112 108.715,182.024 108.571 C 181.878 108.336,181.071 108.305,180.085 108.498 M149.643 108.796 C 149.381 108.902,149.086 108.942,148.988 108.885 C 148.890 108.828,148.810 108.906,148.810 109.059 C 148.810 109.214,148.975 109.273,149.186 109.192 C 149.393 109.113,149.882 109.048,150.272 109.048 C 150.684 109.048,150.919 108.948,150.833 108.810 C 150.662 108.532,150.309 108.528,149.643 108.796 M148.095 109.236 C 148.095 109.354,147.640 109.655,147.083 109.904 C 146.527 110.153,145.674 110.714,145.188 111.151 C 144.701 111.587,144.199 111.880,144.072 111.801 C 143.582 111.498,141.804 114.460,142.066 115.143 C 142.173 115.423,142.135 115.499,141.945 115.382 C 141.768 115.273,141.667 115.383,141.667 115.686 C 141.667 115.948,141.560 116.229,141.429 116.310 C 140.355 116.973,141.478 123.142,143.090 125.441 C 145.700 129.163,147.080 129.524,158.683 129.524 C 167.754 129.524,168.230 129.486,168.313 128.750 C 168.324 128.652,168.342 128.545,168.352 128.512 C 168.379 128.421,168.563 127.656,168.638 127.321 C 168.674 127.158,168.783 126.897,168.880 126.743 C 168.976 126.588,168.959 126.402,168.841 126.329 C 168.723 126.256,168.502 126.689,168.351 127.292 C 167.883 129.148,168.431 129.048,158.745 129.048 C 148.890 129.048,148.750 129.028,146.142 127.245 C 139.748 122.877,140.327 113.740,147.230 110.088 C 148.035 109.662,148.515 109.279,148.361 109.184 C 148.215 109.094,148.095 109.117,148.095 109.236 M143.877 112.202 C 143.770 112.366,143.433 112.902,143.127 113.393 C 142.523 114.365,142.190 114.614,142.649 113.750 C 142.989 113.113,143.863 111.905,143.985 111.905 C 144.033 111.905,143.984 112.039,143.877 112.202 M169.643 112.619 C 169.732 112.763,171.426 112.857,173.929 112.857 C 176.431 112.857,178.125 112.763,178.214 112.619 C 178.310 112.464,176.823 112.381,173.929 112.381 C 171.034 112.381,169.547 112.464,169.643 112.619 M240.563 118.452 C 240.564 119.762,240.604 120.267,240.652 119.575 C 240.700 118.883,240.700 117.812,240.651 117.194 C 240.602 116.577,240.563 117.143,240.563 118.452 M94.766 122.960 C 94.760 124.768,95.273 128.340,95.516 128.189 C 95.636 128.116,95.667 127.847,95.587 127.592 C 95.377 126.932,95.229 125.333,95.236 123.810 C 95.240 123.089,95.136 122.339,95.006 122.143 C 94.833 121.881,94.768 122.100,94.766 122.960 M240.047 125.041 C 239.956 125.129,239.563 125.236,239.174 125.279 C 238.582 125.344,238.288 125.647,237.364 127.143 L 236.260 128.929 208.279 128.989 C 186.075 129.037,180.248 128.988,180.054 128.751 C 179.919 128.587,179.605 127.756,179.356 126.905 L 178.903 125.357 174.052 125.293 C 169.196 125.228,168.330 125.352,169.030 126.012 C 169.282 126.250,169.367 126.250,169.454 126.012 C 169.536 125.789,170.652 125.714,173.920 125.714 L 178.276 125.714 178.530 126.369 C 178.671 126.729,178.919 127.506,179.083 128.095 C 179.247 128.685,179.494 129.245,179.631 129.342 C 179.923 129.546,235.825 129.583,236.585 129.379 C 236.868 129.304,237.152 129.037,237.218 128.787 C 237.291 128.505,237.241 128.392,237.084 128.489 C 236.935 128.581,236.901 128.532,237.001 128.370 C 237.095 128.219,237.313 128.095,237.486 128.095 C 237.660 128.095,237.858 127.881,237.926 127.619 C 238.005 127.319,237.957 127.200,237.798 127.298 C 237.650 127.390,237.615 127.341,237.715 127.180 C 237.809 127.028,238.052 126.905,238.256 126.905 C 238.510 126.905,238.588 126.754,238.503 126.429 C 238.434 126.167,238.492 125.883,238.631 125.797 C 238.779 125.705,238.813 125.754,238.713 125.916 C 238.620 126.067,238.650 126.190,238.781 126.190 C 238.912 126.190,239.086 126.083,239.167 125.952 C 239.441 125.508,251.826 125.642,251.998 126.091 C 252.078 126.298,252.143 127.845,252.143 129.529 C 252.143 131.213,252.238 132.650,252.354 132.721 C 252.470 132.793,285.738 132.908,326.283 132.976 L 400.000 133.101 400.000 132.622 C 400.000 132.143,399.988 132.143,326.429 132.143 L 252.857 132.143 252.857 128.912 C 252.857 126.465,252.776 125.600,252.525 125.348 C 252.171 124.994,240.397 124.705,240.047 125.041 M95.476 128.849 C 95.476 129.709,96.035 131.882,96.226 131.764 C 96.342 131.692,96.371 131.528,96.291 131.399 C 96.211 131.269,96.105 130.901,96.055 130.581 C 96.005 130.261,95.922 129.728,95.871 129.396 C 95.765 128.710,95.476 128.310,95.476 128.849 M96.509 133.571 C 96.592 133.899,96.662 134.307,96.663 134.478 C 96.665 134.650,96.774 134.724,96.905 134.642 C 97.061 134.546,97.048 134.314,96.865 133.974 C 96.712 133.687,96.613 133.417,96.646 133.373 C 96.679 133.329,96.628 133.222,96.532 133.135 C 96.437 133.048,96.426 133.244,96.509 133.571 M98.465 139.821 C 101.518 149.821,112.172 162.298,122.907 168.444 C 125.617 169.996,131.113 172.538,131.317 172.334 C 131.366 172.285,130.196 171.734,128.717 171.108 C 120.262 167.533,111.799 160.794,105.992 153.011 C 103.715 149.959,100.245 144.054,100.174 143.109 C 100.153 142.840,100.065 142.619,99.978 142.619 C 99.815 142.619,99.355 141.587,99.234 140.952 C 99.197 140.756,99.081 140.532,98.976 140.455 C 98.871 140.378,98.768 140.083,98.747 139.800 C 98.726 139.517,98.617 139.286,98.505 139.286 C 98.393 139.286,98.375 139.527,98.465 139.821 M273.413 172.619 C 261.998 172.685,252.569 172.827,252.460 172.936 C 252.164 173.231,252.054 179.286,252.345 179.286 C 252.476 179.286,252.633 179.473,252.693 179.702 C 252.753 179.932,252.814 178.592,252.830 176.726 L 252.857 173.333 326.429 173.333 C 399.140 173.333,400.000 173.328,400.000 172.870 C 400.000 172.387,336.017 172.260,273.413 172.619 M135.595 173.801 C 136.175 174.060,136.810 174.111,136.578 173.880 C 136.486 173.788,136.120 173.684,135.765 173.650 C 135.208 173.597,135.185 173.618,135.595 173.801 M138.947 174.494 C 138.876 174.610,139.150 174.771,139.557 174.852 C 140.583 175.057,140.766 175.039,140.587 174.749 C 140.502 174.611,140.308 174.543,140.157 174.598 C 140.005 174.653,139.700 174.605,139.479 174.491 C 139.250 174.373,139.021 174.375,138.947 174.494 M141.071 175.000 C 140.987 175.137,141.207 175.237,141.593 175.234 C 142.112 175.232,142.182 175.179,141.905 175.000 C 141.447 174.704,141.254 174.704,141.071 175.000 M142.500 175.238 C 142.415 175.376,142.636 175.475,143.022 175.473 C 143.541 175.470,143.611 175.417,143.333 175.238 C 142.876 174.942,142.683 174.942,142.500 175.238 M143.929 175.476 C 143.840 175.619,144.144 175.713,144.688 175.711 C 145.362 175.708,145.503 175.648,145.238 175.476 C 144.772 175.175,144.115 175.175,143.929 175.476 M145.833 175.714 C 145.741 175.864,146.247 175.951,147.188 175.949 C 148.246 175.946,148.585 175.877,148.333 175.714 C 147.863 175.410,146.021 175.410,145.833 175.714 M148.929 175.952 C 148.831 176.110,151.973 176.190,158.173 176.190 L 167.565 176.190 167.949 177.000 C 168.160 177.446,168.333 177.988,168.333 178.205 C 168.333 178.422,168.441 178.533,168.572 178.452 C 168.728 178.356,168.714 178.124,168.532 177.783 C 168.378 177.496,168.271 177.235,168.293 177.202 C 168.315 177.170,168.320 177.089,168.304 177.024 C 168.287 176.958,168.247 176.798,168.214 176.667 C 168.182 176.536,168.141 176.315,168.125 176.176 C 168.109 176.038,167.995 175.986,167.874 176.061 C 167.752 176.137,167.585 176.089,167.502 175.956 C 167.299 175.627,149.132 175.623,148.929 175.952 M180.364 175.942 C 180.286 176.067,180.087 176.118,179.921 176.054 C 179.716 175.975,179.478 176.492,179.177 177.671 C 178.933 178.625,178.686 179.539,178.627 179.702 C 178.569 179.866,178.623 180.000,178.749 180.000 C 178.874 180.000,179.169 179.277,179.403 178.393 C 179.638 177.509,179.948 176.635,180.093 176.450 C 180.548 175.871,235.953 176.253,236.385 176.838 C 236.557 177.071,237.146 177.958,237.694 178.810 L 238.690 180.357 245.536 180.420 L 252.381 180.483 252.362 179.944 C 252.352 179.647,252.298 179.512,252.243 179.643 C 252.179 179.795,249.711 179.867,245.417 179.843 L 238.690 179.806 237.679 178.177 C 237.123 177.281,236.442 176.360,236.165 176.131 C 235.586 175.652,180.658 175.466,180.364 175.942 M169.643 180.000 C 169.732 180.144,171.426 180.238,173.929 180.238 C 176.431 180.238,178.125 180.144,178.214 180.000 C 178.310 179.845,176.823 179.762,173.929 179.762 C 171.034 179.762,169.547 179.845,169.643 180.000 M43.571 203.929 C 44.283 204.649,44.918 205.238,44.984 205.238 C 45.049 205.238,44.521 204.649,43.810 203.929 C 43.098 203.208,42.463 202.619,42.397 202.619 C 42.332 202.619,42.860 203.208,43.571 203.929 " stroke="none" fill="#080505" fill-rule="evenodd"></path></g></svg>