<svg id="svg" version="1.1" xmlns="http://www.w3.org/2000/svg" xmlns:xlink="http://www.w3.org/1999/xlink" width="400" height="387.8787878787879" viewBox="0, 0, 400,387.8787878787879"><g id="svgg"><path id="path0" d="M114.352 124.985 C 110.772 134.314,109.487 176.827,111.497 219.459 L 115.152 296.970 178.788 300.633 C 217.559 302.866,242.424 299.314,242.424 291.543 C 242.424 284.507,217.968 278.788,187.879 278.788 L 133.333 278.788 133.333 206.061 L 133.333 133.333 206.061 133.333 L 278.788 133.333 278.788 187.879 C 278.788 217.968,284.507 242.424,291.543 242.424 C 299.314 242.424,302.866 217.559,300.633 178.788 L 296.970 115.152 208.916 111.587 C 142.154 108.884,119.288 112.124,114.352 124.985 M160.000 160.000 C 123.632 196.368,152.167 254.545,206.372 254.545 C 224.693 254.545,250.343 267.473,266.817 285.009 C 287.230 306.737,299.132 311.718,308.324 302.380 C 317.471 293.089,310.621 279.772,284.732 256.509 C 264.668 238.481,249.940 214.962,252.004 204.245 C 260.279 161.276,191.703 128.297,160.000 160.000 M217.741 187.348 C 234.398 207.418,224.946 230.303,200.000 230.303 C 178.188 230.303,165.773 209.527,174.303 187.298 C 182.913 164.860,199.094 164.879,217.741 187.348 " stroke="none" fill="#000000" fill-rule="evenodd"></path></g></svg>